<svg width="23" height="16" viewBox="0 0 23 16" fill="none" xmlns="http://www.w3.org/2000/svg">
<g opacity="0.8">
<path d="M19.4061 0H9.34369V1.21407H22.1374C21.5376 0.46336 20.5504 0 19.4061 0Z" fill="#EC1C24"/>
<path d="M9.34369 2.42817V3.64225H22.9873C22.9683 3.25073 22.9273 2.75576 22.7807 2.42817" fill="#EC1C24"/>
<path d="M22.1374 1.21402H9.34369V2.4281H22.7807C22.6348 1.97515 22.4177 1.56208 22.1374 1.21402Z" fill="#E6E7E8"/>
<path d="M22.9873 3.6422H9.34369V4.85627H22.9999V4.04701C22.9999 3.97481 22.9952 3.90441 22.9931 3.83365C22.9916 3.81425 22.9895 3.76432 22.9873 3.6422Z" fill="#E6E7E8"/>
<path d="M9.34369 6.07036H22.9999V4.85628H9.34369V6.07036Z" fill="#EC1C24"/>
<path d="M9.34369 7.28438H22.9999V6.07031H9.34369V7.28438Z" fill="#E6E7E8"/>
<path d="M9.34369 7.28446H22.9999V8.49853H9.34369V7.28446Z" fill="#EC1C24"/>
<path d="M0 8.49848V9.71255H22.9999V8.49848H9.34372H0Z" fill="#E6E7E8"/>
<path d="M0 9.71263H22.9999V10.9267H0V9.71263Z" fill="#EC1C24"/>
<path d="M0.00179687 11.6734C0.00179687 11.6734 -0.0014375 11.9676 0.00718747 12.1407H22.9927C23.0028 11.9633 22.9981 11.6734 22.9981 11.6734L22.9999 10.9267H0L0.00179687 11.6734Z" fill="#E6E7E8"/>
<path d="M3.59385 15.8045H19.4063C20.5538 15.8045 21.5075 15.3879 22.1591 14.5689H0.83745C1.5102 15.4058 2.48194 15.8045 3.59205 15.8045" fill="#EC1C24"/>
<path d="M0.839154 14.5689H22.1608C22.445 14.2079 22.6573 13.7958 22.7861 13.3548H0.217437C0.348643 13.7945 0.560033 14.2061 0.84095 14.5689" fill="#E6E7E8"/>
<path d="M0.215557 13.3548H22.7842C22.9019 12.9599 22.9719 12.5523 22.9927 12.1407H0.00712074C0.0426987 12.556 0.0757611 12.8695 0.215557 13.3548Z" fill="#EC1C24"/>
<path d="M9.34372 0H3.59374C1.21217 0 0 1.76903 0 3.95113V8.49852H9.34372V0Z" fill="#176496"/>
<path d="M1.00546 2.14653L1.20096 1.99638L1.3961 2.14653L1.32027 1.90515L1.51469 1.75752H1.27463L1.20024 1.51507L1.12621 1.75752H0.886506L1.08165 1.90515L1.00546 2.14653ZM2.29705 2.14653L2.49255 1.99638L2.68769 2.14653L2.61222 1.90515L2.80628 1.75752H2.56658L2.49219 1.51507L2.41816 1.75752H2.17774L2.37288 1.90515L2.29705 2.14653ZM3.72196 2.14653L3.9171 1.99638L4.1126 2.14653L4.03678 1.90515L4.23084 1.75752H3.99257L3.9171 1.51507L3.84271 1.75752H3.60445L3.79743 1.90515L3.72196 2.14653ZM5.13646 2.14653L5.3316 1.99638L5.5271 2.14653L5.45163 1.90515L5.64569 1.75752H5.40491L5.3316 1.51507L5.25757 1.75752H5.01751L5.21229 1.90515L5.13646 2.14653ZM6.55599 2.14653L6.75149 1.99638L6.94663 2.14653L6.87116 1.90515L7.06558 1.75752H6.82516L6.75113 1.51507L6.67709 1.75752H6.43739L6.63145 1.90515L6.55599 2.14653ZM1.69294 2.77691L1.88808 2.62713L2.08322 2.77691L2.00811 2.53589L2.20217 2.38826H1.96211L1.88772 2.14617L1.81477 2.38826H1.57399L1.76841 2.53589L1.69294 2.77691ZM2.98489 2.77691L3.18003 2.62713L3.37517 2.77691L3.2997 2.53589L3.49376 2.38826H3.25226L3.18003 2.14617L3.10564 2.38826H2.86594L3.06036 2.53589L2.98489 2.77691ZM4.40981 2.77691L4.60459 2.62713L4.79973 2.77691L4.72426 2.53589L4.91868 2.38826H4.67898L4.60459 2.14617L4.5302 2.38826H4.29013L4.48456 2.53589L4.40981 2.77691ZM5.82358 2.77691L6.01908 2.62713L6.21458 2.77691L6.13803 2.53589L6.33281 2.38826H6.09311L6.01872 2.14617L5.94505 2.38826H5.70499L5.89941 2.53589L5.82358 2.77691ZM7.24491 2.77691L7.43861 2.62713L7.63375 2.77691L7.55756 2.53589L7.75234 2.38826H7.513L7.43825 2.14617L7.36458 2.38826H7.12452L7.31894 2.53589L7.24491 2.77691ZM8.04523 2.14653L8.24037 1.99638L8.43587 2.14653L8.36004 1.90515L8.5541 1.75752H8.31584L8.24001 1.51507L8.16598 1.75752H7.92412L8.1207 1.90515L8.04523 2.14653ZM0.986412 7.19104L1.18191 7.0427L1.37705 7.19104L1.30158 6.95182L1.49564 6.80383L1.25594 6.80455L1.18119 6.56245L1.10788 6.80455L0.867459 6.80383L1.06188 6.95182L0.986412 7.19104ZM2.27836 7.19104L2.4735 7.0427L2.669 7.19104L2.59317 6.95182L2.78723 6.80383L2.54789 6.80455L2.47314 6.56245L2.39947 6.80455L2.15977 6.80383L2.35383 6.95182L2.27836 7.19104ZM3.70328 7.19104L3.89842 7.0427L4.09392 7.19104L4.01809 6.95182L4.21215 6.80383L3.97101 6.80455L3.89806 6.56245L3.82403 6.80455L3.58432 6.80383L3.77875 6.95182L3.70328 7.19104ZM5.11777 7.19104L5.31291 7.0427L5.50805 7.19104L5.43366 6.95182L5.62665 6.80383L5.38658 6.80455L5.31255 6.56245L5.23852 6.80455L4.99882 6.80383L5.19288 6.95182L5.11777 7.19104ZM6.53694 7.19104L6.73244 7.0427L6.92794 7.19104L6.85319 6.95182L7.04617 6.80383L6.80647 6.80455L6.73208 6.56245L6.65841 6.80455L6.41835 6.80383L6.61241 6.95182L6.53694 7.19104ZM8.02618 7.19104L8.22132 7.0427L8.41682 7.19104L8.34099 6.95182L8.53542 6.80383L8.29428 6.80455L8.22096 6.56245L8.14693 6.80455L7.90615 6.80383L8.10165 6.95182L8.02618 7.19104ZM1.00546 3.40802L1.20096 3.25787L1.3961 3.40802L1.32027 3.16664L1.51469 3.01901L1.27463 3.01973L1.20024 2.77691L1.12621 3.01973L0.886506 3.01901L1.08165 3.16664L1.00546 3.40802ZM2.29705 3.40802L2.49255 3.25787L2.68769 3.40802L2.61222 3.16664L2.80628 3.01901L2.56658 3.01973L2.49219 2.77691L2.41816 3.01973L2.17774 3.01901L2.37288 3.16664L2.29705 3.40802ZM3.72196 3.40802L3.9171 3.25787L4.1126 3.40802L4.03678 3.16664L4.23084 3.01901L3.99257 3.01973L3.9171 2.77691L3.84271 3.01973L3.60445 3.01901L3.79743 3.16664L3.72196 3.40802ZM5.13646 3.40802L5.3316 3.25787L5.5271 3.40802L5.45163 3.16664L5.64569 3.01901L5.40491 3.01973L5.3316 2.77691L5.25757 3.01973L5.01751 3.01901L5.21229 3.16664L5.13646 3.40802ZM6.55599 3.40802L6.75149 3.25787L6.94663 3.40802L6.87116 3.16664L7.06558 3.01901L6.82516 3.01973L6.75113 2.77691L6.67709 3.01973L6.43739 3.01901L6.63145 3.16664L6.55599 3.40802ZM1.69294 4.03876L1.88808 3.88898L2.08322 4.03876L2.00811 3.79774L2.20217 3.64939H1.96211L1.88772 3.40802L1.81477 3.64939H1.57399L1.76841 3.79774L1.69294 4.03876ZM2.98489 4.03876L3.18003 3.88898L3.37517 4.03876L3.2997 3.79774L3.49376 3.64939H3.25226L3.18003 3.40802L3.10564 3.64939H2.86594L3.06036 3.79774L2.98489 4.03876ZM4.40981 4.03876L4.60459 3.88898L4.79973 4.03876L4.72426 3.79774L4.91868 3.64939H4.67898L4.60459 3.40802L4.5302 3.64939H4.29013L4.48456 3.79774L4.40981 4.03876ZM5.82358 4.03876L6.01908 3.88898L6.21458 4.03876L6.13803 3.79774L6.33281 3.64939H6.09311L6.01872 3.40802L5.94505 3.64939H5.70499L5.89941 3.79774L5.82358 4.03876ZM7.24491 4.03876L7.43861 3.88898L7.63375 4.03876L7.55756 3.79774L7.75234 3.64939H7.513L7.43825 3.40802L7.36458 3.64939H7.12452L7.31894 3.79774L7.24491 4.03876ZM8.04523 3.40802L8.24037 3.25787L8.43587 3.40802L8.36004 3.16664L8.5541 3.01901L8.31584 3.01973L8.24001 2.77691L8.16598 3.01973L7.92412 3.01901L8.1207 3.16664L8.04523 3.40802ZM0.986412 4.6695L1.18191 4.51972L1.37705 4.6695L1.30122 4.42884L1.49564 4.28086L1.25558 4.28157L1.18119 4.03876L1.10788 4.28157L0.867459 4.28086L1.06188 4.42884L0.986412 4.6695ZM2.27836 4.6695L2.4735 4.51972L2.669 4.6695L2.59317 4.42884L2.78723 4.28086L2.54789 4.28157L2.47314 4.03876L2.39947 4.28157L2.15977 4.28086L2.35347 4.42884L2.27836 4.6695ZM3.70328 4.6695L3.89842 4.51972L4.09356 4.6695L4.01809 4.42884L4.21215 4.28086L3.97101 4.28157L3.89806 4.03876L3.82403 4.28157L3.58432 4.28086L3.77875 4.42884L3.70328 4.6695ZM5.11777 4.6695L5.31255 4.51972L5.50805 4.6695L5.43366 4.42884L5.62665 4.28086L5.38658 4.28157L5.31255 4.03876L5.23852 4.28157L4.99882 4.28086L5.19288 4.42884L5.11777 4.6695ZM6.53694 4.6695L6.73244 4.51972L6.92758 4.6695L6.85319 4.42884L7.04617 4.28086L6.80611 4.28157L6.73208 4.03876L6.65841 4.28157L6.41835 4.28086L6.61241 4.42884L6.53694 4.6695ZM1.67389 5.30025L1.86903 5.15082L2.06417 5.30025L1.98906 5.06103L2.18277 4.91232H1.94271L1.86867 4.6695L1.795 4.91232H1.55494L1.74936 5.06103L1.67389 5.30025ZM2.96584 5.30025L3.16098 5.15082L3.35612 5.30025L3.28065 5.06103L3.47472 4.91232H3.23429L3.16062 4.6695L3.08659 4.91232H2.84653L3.04131 5.06103L2.96584 5.30025ZM4.39112 5.30025L4.58554 5.15082L4.78104 5.30025L4.70413 5.06103L4.89963 4.91232H4.65993L4.58554 4.6695L4.51151 4.91232H4.27145L4.46587 5.06103L4.39112 5.30025ZM5.80382 5.30025L6.00003 5.15082L6.19553 5.30025L6.12007 5.06103L6.31377 4.91232H6.07407L5.99968 4.6695L5.926 4.91232H5.68594L5.88036 5.06103L5.80382 5.30025ZM7.22334 5.30025L7.41956 5.15082L7.61506 5.30025L7.53923 5.06103L7.73401 4.91232H7.49431L7.41956 4.6695L7.34553 4.91232H7.10547L7.29989 5.06103L7.22334 5.30025ZM8.02618 4.6695L8.22132 4.51972L8.41646 4.6695L8.34099 4.42884L8.53542 4.28086L8.29428 4.28157L8.22096 4.03876L8.14693 4.28157L7.90615 4.28086L8.10165 4.42884L8.02618 4.6695ZM0.986412 5.93135L1.18191 5.783L1.37705 5.93135L1.30122 5.69033L1.49564 5.54234L1.25558 5.54306L1.18119 5.30025L1.10788 5.54306L0.867459 5.54234L1.06188 5.69033L0.986412 5.93135ZM2.27836 5.93135L2.4735 5.783L2.669 5.93135L2.59317 5.69033L2.78723 5.54234L2.54789 5.54306L2.47314 5.30025L2.39947 5.54306L2.15977 5.54234L2.35347 5.69033L2.27836 5.93135ZM3.70328 5.93135L3.89842 5.783L4.09356 5.93135L4.01809 5.69033L4.21215 5.54234L3.97101 5.54306L3.89806 5.30025L3.82403 5.54306L3.58432 5.54234L3.77875 5.69033L3.70328 5.93135ZM5.11777 5.93135L5.31255 5.783L5.50805 5.93135L5.43366 5.69033L5.62665 5.54234L5.38658 5.54306L5.31255 5.30025L5.23852 5.54306L4.99882 5.54234L5.19288 5.69033L5.11777 5.93135ZM6.53694 5.93135L6.73244 5.783L6.92758 5.93135L6.85319 5.69033L7.04617 5.54234L6.80611 5.54306L6.73208 5.30025L6.65841 5.54306L6.41835 5.54234L6.61241 5.69033L6.53694 5.93135ZM1.67389 6.56245L1.86903 6.41231L2.06417 6.56245L1.98906 6.32108L2.18277 6.17453H1.94271L1.86867 5.93135L1.795 6.17453H1.55494L1.74936 6.32108L1.67389 6.56245ZM2.96584 6.56245L3.16098 6.41231L3.35612 6.56245L3.28065 6.32108L3.47472 6.17453H3.23429L3.16062 5.93135L3.08659 6.17453H2.84653L3.04131 6.32108L2.96584 6.56245ZM4.39112 6.56245L4.58554 6.41231L4.78104 6.56245L4.70413 6.32108L4.89963 6.17453H4.65993L4.58554 5.93135L4.51151 6.17453H4.27145L4.46587 6.32108L4.39112 6.56245ZM5.80382 6.56245L6.00003 6.41231L6.19553 6.56245L6.12007 6.32108L6.31377 6.17453H6.07407L5.99968 5.93135L5.926 6.17453H5.68594L5.88036 6.32108L5.80382 6.56245ZM7.22334 6.56245L7.41956 6.41231L7.61506 6.56245L7.53923 6.32108L7.73401 6.17453H7.49431L7.41956 5.93135L7.34553 6.17453H7.10547L7.29989 6.32108L7.22334 6.56245ZM8.02618 5.93135L8.22132 5.783L8.41646 5.93135L8.34099 5.69033L8.53542 5.54234L8.29428 5.54306L8.22096 5.30025L8.14693 5.54306L7.90615 5.54234L8.10165 5.69033L8.02618 5.93135Z" fill="white"/>
</g>
</svg>
