<svg width="36" height="36" viewBox="0 0 36 36" fill="none" xmlns="http://www.w3.org/2000/svg">
<path d="M21.2727 28.0716H26.7273C27.0166 28.0716 27.2941 27.9566 27.4987 27.7521C27.7032 27.5475 27.8182 27.27 27.8182 26.9807V15.5152C27.8183 15.349 27.7804 15.1849 27.7074 15.0355C27.6345 14.8862 27.5283 14.7554 27.3971 14.6534L18.6698 7.86573C18.4783 7.71676 18.2426 7.63589 18 7.63589C17.7574 7.63589 17.5217 7.71676 17.3302 7.86573L8.6029 14.6534C8.47168 14.7554 8.36553 14.8862 8.29255 15.0355C8.21957 15.1849 8.18169 15.349 8.18181 15.5152V26.9807C8.18181 27.27 8.29674 27.5475 8.50133 27.7521C8.70591 27.9566 8.98339 28.0716 9.27272 28.0716H14.7273M21.2727 28.0716V20.7268C21.2727 20.1243 20.7843 19.6359 20.1818 19.6359H15.8182C15.2157 19.6359 14.7273 20.1243 14.7273 20.7268V28.0716M21.2727 28.0716H14.7273" stroke="#2E2E31" stroke-width="2.12709" stroke-linecap="round"/>
</svg>
