<svg width="18" height="14" viewBox="0 0 18 14" fill="none" xmlns="http://www.w3.org/2000/svg">
<path d="M8.2287 13.7416L8.5955 13.3987C7.65336 12.391 6.43636 11.4893 5.30277 10.6494L5.26599 10.6222L5.26579 10.622C4.03471 9.71084 2.83835 8.82276 1.9431 7.81454C1.05734 6.81701 0.502137 5.74062 0.502137 4.45744C0.502137 3.28234 0.95384 2.30528 1.71659 1.61758C2.48316 0.92645 3.5936 0.502137 4.94448 0.502137C6.43186 0.502137 7.75032 1.4725 8.52315 2.2032L8.86813 2.52938L9.21311 2.2032C9.98555 1.47286 11.3073 0.502137 12.7958 0.502137C14.1462 0.502137 15.2565 0.92643 16.023 1.61756C16.7856 2.30526 17.2373 3.28234 17.2373 4.45744C17.2373 5.74093 16.6818 6.81747 15.7957 7.81503C14.9002 8.82327 13.7036 9.71116 12.4729 10.622L12.4656 10.6274C11.3224 11.4732 10.0938 12.382 9.14209 13.3981C9.08872 13.4548 8.99879 13.498 8.89232 13.498H8.84555C8.73876 13.498 8.64817 13.4547 8.59461 13.3977L8.2287 13.7416ZM8.2287 13.7416C8.38271 13.9055 8.60849 14.0002 8.84555 14.0002H8.89232C9.13019 14.0002 9.35516 13.9048 9.50836 13.7416L8.86813 1.83833C8.07469 1.08814 6.63376 0 4.94448 0C2.03278 0 0 1.83323 0 4.45744C0 7.34896 2.52465 9.21788 4.96705 11.0256L4.98377 11.038C6.13165 11.8885 7.31793 12.7674 8.2287 13.7416Z" stroke="black"/>
</svg>
