<svg width="17" height="14" viewBox="0 0 17 14" fill="none" xmlns="http://www.w3.org/2000/svg">
<path d="M8.25744 13.4071C7.35409 12.399 6.18727 11.4969 5.10126 10.6573L5.06583 10.6299L5.06563 10.6298C3.88589 9.71862 2.74039 8.83131 1.88307 7.82382C1.03537 6.82763 0.5 5.74824 0.5 4.45739C0.5 3.27451 0.936217 2.29484 1.66542 1.6088C2.39687 0.920652 3.45364 0.5 4.73836 0.5C6.14809 0.5 7.40468 1.46157 8.14729 2.19424L8.49845 2.5407L7.88568 13.7414M8.25744 13.4071C8.25765 13.4073 8.25786 13.4076 8.25807 13.4078L7.88568 13.7414M8.25744 13.4071C8.25737 13.407 8.25729 13.4069 8.25721 13.4068L7.88568 13.7414M8.25744 13.4071C8.30711 13.4621 8.38672 13.5 8.47682 13.5H8.52164C8.61164 13.5 8.69086 13.462 8.74034 13.407M7.88568 13.7414C8.03327 13.9053 8.24964 14 8.47682 14H8.52164C8.74959 14 8.96518 13.9046 9.112 13.7414M8.74034 13.407C8.74019 13.4071 8.74005 13.4073 8.7399 13.4075L9.112 13.7414M8.74034 13.407C9.65293 12.3903 10.831 11.4809 11.9264 10.6353L11.9336 10.6298M8.74034 13.407L9.112 13.7414M9.112 13.7414L11.9336 10.6298M11.9336 10.6298L12.2392 11.0255L11.9337 10.6297C11.9337 10.6297 11.9336 10.6297 11.9336 10.6298Z" stroke="black"/>
</svg>
