<svg width="25" height="25" viewBox="0 0 25 25" fill="none" xmlns="http://www.w3.org/2000/svg">
<g clip-path="url(#clip0_161_4250)">
<path d="M12.5001 22.9165C13.6459 22.9165 14.5834 21.979 14.5834 20.8332H10.4167C10.4167 21.979 11.3542 22.9165 12.5001 22.9165ZM18.7501 16.6665V11.4582C18.7501 8.26025 17.0522 5.58317 14.0626 4.87484V4.1665C14.0626 3.30192 13.3647 2.604 12.5001 2.604C11.6355 2.604 10.9376 3.30192 10.9376 4.1665V4.87484C7.95841 5.58317 6.25008 8.24984 6.25008 11.4582V16.6665L4.16675 18.7498V19.7915H20.8334V18.7498L18.7501 16.6665ZM16.6667 17.7082H8.33341V11.4582C8.33341 8.87484 9.90633 6.77067 12.5001 6.77067C15.0938 6.77067 16.6667 8.87484 16.6667 11.4582V17.7082Z" fill="black"/>
</g>
<defs>
<clipPath id="clip0_161_4250">
<rect width="25" height="25" fill="white"/>
</clipPath>
</defs>
</svg>
