<svg width="19" height="15" viewBox="0 0 19 15" fill="none" xmlns="http://www.w3.org/2000/svg">
<path d="M10.9835 7.99991C10.2608 7.99991 9.55434 7.76531 8.95345 7.32579C8.35256 6.88627 7.88422 6.26157 7.60766 5.53067C7.3311 4.79977 7.25874 3.99552 7.39973 3.2196C7.54072 2.44369 7.88872 1.73096 8.39974 1.17156C8.91075 0.612157 9.56183 0.231199 10.2706 0.0768598C10.9794 -0.0774793 11.7141 0.00173312 12.3818 0.30448C13.0495 0.607227 13.6201 1.11991 14.0216 1.7777C14.4231 2.43549 14.6374 3.20884 14.6374 3.99995C14.6374 5.06081 14.2525 6.07821 13.5672 6.82835C12.882 7.57848 11.9526 7.99991 10.9835 7.99991ZM10.9835 1.59998C10.5499 1.59998 10.126 1.74074 9.76546 2.00445C9.40492 2.26816 9.12392 2.64299 8.95799 3.08152C8.79205 3.52006 8.74863 4.00262 8.83323 4.46817C8.91782 4.93371 9.12662 5.36135 9.43323 5.69699C9.73984 6.03263 10.1305 6.26121 10.5558 6.35381C10.981 6.44641 11.4219 6.39889 11.8225 6.21724C12.2231 6.03559 12.5655 5.72798 12.8064 5.33331C13.0473 4.93863 13.1758 4.47462 13.1758 3.99995C13.1758 3.36344 12.9449 2.753 12.5337 2.30292C12.1226 1.85284 11.5649 1.59998 10.9835 1.59998Z" fill="black"/>
<path d="M18.1051 14.9999C17.9066 14.9971 17.717 14.91 17.5767 14.7572C17.4363 14.6043 17.3563 14.3979 17.3537 14.1818C17.3537 12.0545 16.2917 10.6363 11.0919 10.6363C5.89207 10.6363 4.83007 12.0545 4.83007 14.1818C4.83007 14.3988 4.7509 14.6069 4.60998 14.7603C4.46906 14.9137 4.27794 14.9999 4.07865 14.9999C3.87936 14.9999 3.68823 14.9137 3.54731 14.7603C3.4064 14.6069 3.32723 14.3988 3.32723 14.1818C3.32723 9 8.7675 9 11.0919 9C13.4163 9 18.8565 9 18.8565 14.1818C18.854 14.3979 18.774 14.6043 18.6336 14.7572C18.4932 14.91 18.3036 14.9971 18.1051 14.9999Z" fill="black"/>
<mask id="path-3-inside-1_161_4183" fill="white">
<path d="M3.32771 5.54361V3.32625H2.21847V5.54361H0V6.65229H2.21847V8.86965H3.32771V6.65229H5.54618V5.54361H3.32771Z"/>
</mask>
<path d="M3.32771 5.54361H0.31348V8.55784H3.32771V5.54361ZM3.32771 3.32625H6.34193V0.31202H3.32771V3.32625ZM2.21847 3.32625V0.31202H-0.795756V3.32625H2.21847ZM2.21847 5.54361V8.55784H5.2327V5.54361H2.21847ZM0 5.54361V2.52938H-3.01423V5.54361H0ZM0 6.65229H-3.01423V9.66652H0V6.65229ZM2.21847 6.65229H5.2327V3.63806H2.21847V6.65229ZM2.21847 8.86965H-0.795756V11.8839H2.21847V8.86965ZM3.32771 8.86965V11.8839H6.34193V8.86965H3.32771ZM3.32771 6.65229V3.63806H0.31348V6.65229H3.32771ZM5.54618 6.65229V9.66652H8.56041V6.65229H5.54618ZM5.54618 5.54361H8.56041V2.52938H5.54618V5.54361ZM6.34193 5.54361V3.32625H0.31348V5.54361H6.34193ZM3.32771 0.31202H2.21847V6.34047H3.32771V0.31202ZM-0.795756 3.32625V5.54361H5.2327V3.32625H-0.795756ZM2.21847 2.52938H0V8.55784H2.21847V2.52938ZM-3.01423 5.54361V6.65229H3.01423V5.54361H-3.01423ZM0 9.66652H2.21847V3.63806H0V9.66652ZM-0.795756 6.65229V8.86965H5.2327V6.65229H-0.795756ZM2.21847 11.8839H3.32771V5.85543H2.21847V11.8839ZM6.34193 8.86965V6.65229H0.31348V8.86965H6.34193ZM3.32771 9.66652H5.54618V3.63806H3.32771V9.66652ZM8.56041 6.65229V5.54361H2.53195V6.65229H8.56041ZM5.54618 2.52938H3.32771V8.55784H5.54618V2.52938Z" fill="black" mask="url(#path-3-inside-1_161_4183)"/>
</svg>
