<svg width="26" height="26" viewBox="0 0 26 26" fill="none" xmlns="http://www.w3.org/2000/svg">
<g clip-path="url(#clip0_161_1124)">
<path d="M0.00730772 2.08875C-0.0573976 1.55513 0.314519 1.07006 0.848144 1.00535C1.38177 0.940649 1.86684 1.31257 1.93154 1.84619L2.51367 6.35764C4.71282 3.0913 8.43193 1.07 12.4421 1.07C17.5519 1.07 22.0957 4.3202 23.7612 9.13891C23.9391 9.64018 23.6642 10.19 23.1629 10.3678C23.0659 10.4002 22.9527 10.4163 22.8395 10.4163C22.4353 10.4163 22.0633 10.1576 21.9178 9.76948C20.5272 5.72695 16.7111 3.01039 12.4422 3.01039C8.94941 3.01039 5.69921 4.85377 3.88818 7.79675L8.7392 7.24698C9.27282 7.18227 9.75789 7.57039 9.80645 8.10402C9.85495 8.63764 9.48303 9.12271 8.94941 9.17126L1.96389 9.9636C1.93154 9.9636 1.88304 9.9636 1.85069 9.9636C1.36556 9.9636 0.945147 9.60783 0.896645 9.12276L0.00730772 2.08875ZM24.0361 15.0733L17.0506 15.8657C16.5169 15.9304 16.1289 16.3993 16.1935 16.9329C16.2582 17.4665 16.7271 17.8546 17.2608 17.7899L21.4812 17.321C19.8318 20.7976 16.3229 23.0452 12.4259 23.0452C8.04381 23.0452 4.09828 20.1184 2.83703 15.9304C2.67532 15.4129 2.1417 15.1219 1.62427 15.2835C1.10685 15.4452 0.815791 15.9789 0.977444 16.4963C1.70507 18.9056 3.22509 21.0724 5.23018 22.5924C7.31612 24.1609 9.80634 25.0018 12.4259 25.0018C17.2123 25.0018 21.4974 22.1558 23.3892 17.8384L24.0684 23.223C24.1331 23.7081 24.5535 24.0639 25.0224 24.0639C25.0709 24.0639 25.1033 24.0639 25.1518 24.0639C25.6854 23.9992 26.0573 23.5141 25.9926 22.9805L25.0871 15.9465C25.0386 15.3967 24.5697 15.0248 24.0361 15.0733Z" fill="white"/>
</g>
<defs>
<clipPath id="clip0_161_1124">
<rect width="26" height="26" fill="white" transform="matrix(1 0 0 -1 0 26)"/>
</clipPath>
</defs>
</svg>
