<svg width="16" height="16" viewBox="0 0 16 16" fill="none" xmlns="http://www.w3.org/2000/svg">
<g clip-path="url(#clip0_161_2230)">
<path d="M9.40396 7.33321H12.0393C12.4033 7.33321 12.6979 7.63188 12.6979 7.99987C12.6979 8.36787 12.4033 8.66654 12.0393 8.66654H8.7453C8.65827 8.66601 8.57221 8.64835 8.49201 8.61457C8.41181 8.58078 8.33906 8.53153 8.27789 8.46962C8.21673 8.40772 8.16836 8.33437 8.13554 8.25377C8.10273 8.17317 8.08611 8.0869 8.08664 7.99987V3.9999C8.08664 3.6319 8.3813 3.33324 8.7453 3.33324C9.10929 3.33324 9.40396 3.6319 9.40396 3.9999V7.33321ZM13.4039 3.2859C14.6438 4.54112 15.3373 6.23554 15.3333 7.99987C15.3333 11.6818 12.3839 14.6665 8.7453 14.6665V13.3332C11.6559 13.3332 14.0159 10.9452 14.0159 7.99987C14.0193 6.58824 13.4643 5.23255 12.4719 4.22856C11.9857 3.73373 11.4057 3.34075 10.7658 3.07256C10.126 2.80437 9.43908 2.66636 8.7453 2.66657C6.38265 2.66657 4.38266 4.2399 3.714 6.40788L4.61533 5.79255C4.68698 5.74364 4.76765 5.70946 4.85263 5.69203C4.93762 5.67459 5.02523 5.67424 5.11035 5.69099C5.19548 5.70774 5.27642 5.74126 5.34846 5.7896C5.42051 5.83794 5.48221 5.90013 5.52999 5.97255C5.62777 6.11926 5.66391 6.29855 5.63061 6.47169C5.5973 6.64483 5.49722 6.79792 5.35199 6.89788L3.16733 8.3892C3.09568 8.43812 3.01501 8.47229 2.93003 8.48973C2.84504 8.50717 2.75743 8.50752 2.67231 8.49077C2.58718 8.47402 2.50624 8.44049 2.4342 8.39215C2.36215 8.34381 2.30045 8.28162 2.25267 8.2092L0.780017 5.99855C0.682024 5.85179 0.64576 5.67234 0.679072 5.49904C0.712385 5.32574 0.812594 5.17253 0.958016 5.07256C1.02967 5.02364 1.11034 4.98947 1.19532 4.97203C1.28031 4.9546 1.36792 4.95424 1.45304 4.97099C1.53817 4.98775 1.61911 5.02127 1.69115 5.06961C1.7632 5.11795 1.8249 5.18014 1.87268 5.25256L2.43201 6.09189C3.242 3.3399 5.76198 1.33325 8.7453 1.33325C10.5646 1.33325 12.2119 2.07991 13.4039 3.2859Z" fill="#2E2E31"/>
</g>
<defs>
<clipPath id="clip0_161_2230">
<rect width="15.6073" height="15.6073" fill="white" transform="scale(1.02515)"/>
</clipPath>
</defs>
</svg>
