<svg width="34" height="36" viewBox="0 0 34 36" fill="none" xmlns="http://www.w3.org/2000/svg">
<rect x="27.6857" y="18.9094" width="15.3308" height="18.0684" transform="rotate(139.812 27.6857 18.9094)" fill="#2C2E3E"/>
<path fill-rule="evenodd" clip-rule="evenodd" d="M21.7708 23.697L21.6245 23.5277L15.9741 28.8023L18.7653 32.1067C20.4044 33.7036 23.9294 34.5513 27.6767 30.7624C32.0746 27.5915 31.7758 24.0946 30.477 22.2139L27.6858 18.9095L21.7708 23.697Z" fill="#2C2E3E"/>
<path fill-rule="evenodd" clip-rule="evenodd" d="M10.1246 10.0916L10.1289 10.088L16.0265 5.10631C12.8199 1.10644 9.95511 1.49079 8.82577 2.44474L5.81839 4.98506L5.81417 4.98862L2.8068 7.52893C1.67746 8.48289 0.907382 11.1689 4.31481 14.9991L10.1246 10.0916Z" fill="#2C2E3E"/>
<path d="M7.75781 15.1724L14.7535 23.4543C15.2622 24.0566 14.9067 24.7105 14.6654 24.9621L6.39778 15.1744C7.10796 14.8612 7.60037 15.0426 7.75781 15.1724Z" fill="#F2F2F2"/>
<path d="M15.6631 8.49479L22.6588 16.7767C23.1676 17.379 23.8717 17.1378 24.1602 16.9419L15.8926 7.15425C15.465 7.80207 15.5615 8.31787 15.6631 8.49479Z" fill="#F2F2F2"/>
<path fill-rule="evenodd" clip-rule="evenodd" d="M22.4465 24.7556C23.6634 23.8012 25.5247 22.006 25.8827 20.5402C26.1054 19.6285 25.1843 18.9969 24.3245 18.6206L22.9317 18.011C22.5343 17.8371 22.0894 17.508 21.7181 17.7324C21.5982 17.8049 21.4774 17.9307 21.369 18.1344C21.1526 18.5977 20.4119 19.7784 19.1574 20.8617C17.8796 21.9174 16.5917 22.4503 16.0987 22.5862C15.8798 22.659 15.7355 22.757 15.644 22.8632C15.3607 23.1917 15.6108 23.6853 15.7158 24.1062L16.0839 25.5814C16.3112 26.492 16.7799 27.5057 17.716 27.4386C19.221 27.3307 21.3021 25.7957 22.4465 24.7556Z" fill="#F2F2F2"/>
<path fill-rule="evenodd" clip-rule="evenodd" d="M8.04119 8.4113C8.34065 8.15315 8.64371 7.89715 8.94829 7.64507C9.97843 6.79251 11.3367 6.25751 12.4121 5.96211C13.1174 5.76839 13.8044 6.22393 13.9988 6.92904C14.2587 7.87158 13.5493 8.99207 12.6799 9.43941C12.0351 9.77117 11.3875 10.1742 10.9226 10.4879C10.7739 10.5882 10.6377 10.7033 10.5139 10.8331C10.1269 11.239 9.62126 11.8102 9.18637 12.3904C8.59998 13.1727 7.37665 13.6848 6.49082 13.271C5.82814 12.9615 5.49387 12.208 5.80279 11.545C6.27384 10.534 7.0284 9.28439 8.04119 8.4113Z" fill="#F2F2F2"/>
<path d="M30.5593 24.0078C29.7023 24.8034 28.2998 26.8481 29.5458 28.6626C30.1905 27.9268 31.2958 25.9659 30.5593 24.0078Z" fill="#E0E0E0"/>
<path d="M25.2782 32.0107C24.2434 31.4661 21.8493 30.8212 20.5508 32.5984C21.4587 32.9626 23.6753 33.355 25.2782 32.0107Z" fill="#E0E0E0"/>
<path d="M3.20447 8.33952C3.60922 8.76212 4.10272 9.94595 2.83863 11.3004C2.62041 10.8158 2.38807 9.54517 3.20447 8.33952Z" fill="#FF2626"/>
<path d="M3.20447 8.33952C3.60922 8.76212 4.10272 9.94595 2.83863 11.3004C2.62041 10.8158 2.38807 9.54517 3.20447 8.33952Z" fill="url(#paint0_linear_161_1991)"/>
<path d="M12.5451 2.94741C12.1903 3.41272 11.0971 4.08354 9.5633 3.04441C10.0083 2.75379 11.2276 2.32752 12.5451 2.94741Z" fill="#FF2626"/>
<path d="M12.5451 2.94741C12.1903 3.41272 11.0971 4.08354 9.5633 3.04441C10.0083 2.75379 11.2276 2.32752 12.5451 2.94741Z" fill="url(#paint1_linear_161_1991)"/>
<defs>
<linearGradient id="paint0_linear_161_1991" x1="3.67606" y1="10.593" x2="2.36879" y2="9.04541" gradientUnits="userSpaceOnUse">
<stop stop-color="#FFA3A3"/>
<stop offset="1" stop-color="#FC3030" stop-opacity="0"/>
</linearGradient>
<linearGradient id="paint1_linear_161_1991" x1="10.3918" y1="3.76221" x2="11.7184" y2="2.2311" gradientUnits="userSpaceOnUse">
<stop stop-color="#FFA3A3"/>
<stop offset="1" stop-color="#FC3030" stop-opacity="0"/>
</linearGradient>
</defs>
</svg>
