<svg width="36" height="36" viewBox="0 0 36 36" fill="none" xmlns="http://www.w3.org/2000/svg">
<circle cx="18.0001" cy="18.0001" r="10.9091" stroke="#ADADB7" stroke-width="2.12709" stroke-linecap="round"/>
<path fill-rule="evenodd" clip-rule="evenodd" d="M25.6864 24.1136C25.7597 23.7473 25.8061 23.326 25.8061 22.8474V22.7185C25.8061 21.5868 25.8061 21.0701 25.0058 20.6122C24.6683 20.422 24.4167 20.3054 24.2141 20.2133C23.7637 20.0096 23.4654 19.8746 23.0628 19.2854L22.9204 19.0743C22.497 18.4299 22.1914 17.9659 21.0278 18.1501C18.7386 18.5134 18.5693 18.916 18.4686 19.5959L18.4527 19.7076C18.3041 20.7006 18.2771 21.0357 18.692 21.4714C20.2447 23.1002 21.1751 24.2748 21.4574 24.9622C21.5838 25.2715 21.8931 26.1552 21.7519 27.0758C20.5815 27.5596 19.3376 27.8088 18.0891 27.82C21.1656 27.793 23.9044 26.3512 25.6864 24.1136ZM17.909 27.82C16.994 27.8114 16.0783 27.675 15.1891 27.4092C13.7073 26.9663 12.361 26.1829 11.2518 25.1332C12.9906 26.7793 15.3312 27.7963 17.909 27.82ZM10.8932 24.7759C10.5258 24.3905 10.1886 23.9738 9.88562 23.5291C8.78122 21.9077 8.19157 19.9987 8.18187 18.0502C8.19463 20.6576 9.22366 23.0248 10.8932 24.7759ZM8.18181 17.966C8.20075 12.5591 12.5897 8.18181 18.0011 8.18181C19.3744 8.18181 20.6819 8.46375 21.8689 8.97292C21.1906 9.43053 20.2634 10.0774 19.9391 10.5217C19.8989 10.5767 19.8546 10.6867 19.7997 10.8231C19.6281 11.2495 19.3524 11.9343 18.773 12.0068C18.5742 12.0314 18.3054 12.0142 18.0206 11.9958L18.0196 11.9957C17.2562 11.9466 16.2137 11.8796 15.88 12.7863C15.6677 13.3607 15.6308 14.922 16.317 15.732C16.4274 15.8609 16.4483 16.1003 16.3734 16.3691C16.2752 16.7213 16.0776 16.9361 16.015 16.9803C15.9006 16.9136 15.6749 16.6534 15.5147 16.4687L15.5007 16.4525C15.1165 16.0045 14.6354 15.4461 14.0143 15.2742C13.8058 15.2164 13.5784 15.168 13.3544 15.1204C13.3358 15.1164 13.3173 15.1125 13.2987 15.1085C12.6249 14.9674 11.8627 14.8066 11.6847 14.4285C11.5558 14.1537 11.5558 13.7765 11.5558 13.378V13.3668C11.5558 12.855 11.5558 12.2769 11.3054 11.716C11.2184 11.5158 11.0904 11.336 10.9298 11.1882C9.36493 12.8124 8.40688 14.9258 8.21672 17.1732C8.19434 17.4377 8.18276 17.7022 8.18181 17.966Z" fill="#ADADB7"/>
</svg>
