<svg width="34" height="15" viewBox="0 0 34 15" fill="none" xmlns="http://www.w3.org/2000/svg">
<rect x="9.20801" y="14.9949" width="14.9898" height="17.6665" transform="rotate(-90 9.20801 14.9949)" fill="#2C2E3E"/>
<path fill-rule="evenodd" clip-rule="evenodd" d="M9.36418 7.5561L9.58294 7.55356L9.2082 0.00512561L4.9789 0.0051258C2.75194 0.221865 -0.105283 2.32002 0.360474 7.50962C-0.0458604 12.7953 2.75467 14.7784 4.97889 14.9949L9.20819 14.9949L9.36418 7.5561Z" fill="#2C2E3E"/>
<path fill-rule="evenodd" clip-rule="evenodd" d="M26.8745 7.44124L26.8745 7.44664L26.8745 14.995C31.8854 15.1235 33.4058 12.7412 33.4058 11.2958L33.4058 7.44664L33.4058 7.44124L33.4058 3.59212C33.4058 2.14668 31.8854 -0.123204 26.8745 0.00527954L26.8745 7.44124Z" fill="#2C2E3E"/>
<path d="M24.5725 2.46777L13.9726 2.46777C13.2017 2.46777 12.9375 1.78966 12.9019 1.45061L25.429 1.45061C25.2149 2.17868 24.7688 2.43208 24.5725 2.46777Z" fill="#F2F2F2"/>
<path d="M24.5725 12.5859L13.9726 12.5859C13.2017 12.5859 12.9375 13.264 12.9019 13.6031L25.429 13.6031C25.2149 12.875 24.7688 12.6216 24.5725 12.5859Z" fill="#F2F2F2"/>
<path fill-rule="evenodd" clip-rule="evenodd" d="M8.14664 7.39315C8.09176 8.90423 8.25826 11.4272 9.12721 12.6194C9.66774 13.361 10.7206 13.0715 11.5442 12.6667L12.8783 12.0109C13.259 11.8238 13.7855 11.6992 13.8521 11.2803C13.8737 11.1449 13.8559 10.9753 13.7721 10.7659C13.5626 10.3118 13.148 9.01371 13.1303 7.39315C13.148 5.7726 13.5626 4.47447 13.7721 4.02045C13.8559 3.81099 13.8737 3.64136 13.8521 3.50601C13.7855 3.08714 13.259 2.96249 12.8783 2.77539L11.5442 2.11962C10.7206 1.71481 9.66774 1.42527 9.12721 2.16688C8.25826 3.3591 8.09176 5.88208 8.14664 7.39315Z" fill="#F2F2F2"/>
<path fill-rule="evenodd" clip-rule="evenodd" d="M29.4439 6.9453C29.4478 7.33185 29.4478 7.71974 29.4439 8.10629C29.4308 9.41365 28.9734 10.7657 28.5155 11.7554C28.2152 12.4045 27.4415 12.6302 26.7922 12.3305C25.9242 11.9299 25.5348 10.6931 25.7492 9.76146C25.9082 9.07055 26.0158 8.33249 26.0748 7.78732C26.0937 7.613 26.0937 7.43858 26.0748 7.26427C26.0158 6.7191 25.9082 5.98104 25.7492 5.29013C25.5348 4.35852 25.9242 3.12168 26.7922 2.72108C27.4415 2.42139 28.2152 2.64713 28.5155 3.29617C28.9734 4.28586 29.4308 5.63793 29.4439 6.9453Z" fill="#F2F2F2"/>
<path d="M3.58686 13.9243C3.53333 12.7822 2.89091 10.4445 0.749512 10.2304C0.892272 11.1762 1.65961 13.2391 3.58686 13.9243Z" fill="#E0E0E0"/>
<path d="M0.941063 4.93041C2.00074 4.50111 3.99304 3.11971 3.48482 1.0285C2.63992 1.47687 0.94831 2.88497 0.941063 4.93041Z" fill="#E0E0E0"/>
<path d="M32.5492 3.37789C31.9781 3.41358 30.7825 3.03527 30.5684 1.2365C31.068 1.37926 32.1637 2.0074 32.5492 3.37789Z" fill="#FF2626"/>
<path d="M32.5492 3.37789C31.9781 3.41358 30.7825 3.03527 30.5684 1.2365C31.068 1.37926 32.1637 2.0074 32.5492 3.37789Z" fill="url(#paint0_linear_161_1986)"/>
<path d="M30.6834 13.7569C30.5597 13.1982 30.7484 11.9585 32.4923 11.4684C32.4286 11.9841 31.9777 13.1639 30.6834 13.7569Z" fill="#FF2626"/>
<path d="M30.6834 13.7569C30.5597 13.1982 30.7484 11.9585 32.4923 11.4684C32.4286 11.9841 31.9777 13.1639 30.6834 13.7569Z" fill="url(#paint1_linear_161_1986)"/>
<defs>
<linearGradient id="paint0_linear_161_1986" x1="30.5684" y1="2.30831" x2="32.5492" y2="2.30831" gradientUnits="userSpaceOnUse">
<stop stop-color="#FFA3A3"/>
<stop offset="1" stop-color="#FC3030" stop-opacity="0"/>
</linearGradient>
<linearGradient id="paint1_linear_161_1986" x1="31.4334" y1="11.6343" x2="31.7401" y2="13.5913" gradientUnits="userSpaceOnUse">
<stop stop-color="#FFA3A3"/>
<stop offset="1" stop-color="#FC3030" stop-opacity="0"/>
</linearGradient>
</defs>
</svg>
