<svg width="9" height="10" viewBox="0 0 9 10" fill="none" xmlns="http://www.w3.org/2000/svg">
<path d="M8.95864 4.943C8.95864 4.80233 8.92506 4.67033 8.86882 4.55035C8.49361 3.34054 6.73703 3.42892 4.23841 3.36991C3.82067 3.36012 4.05962 2.86708 4.20624 1.78479C4.30165 1.08089 3.84753 0 3.08424 0C1.8257 0 3.03639 0.992235 1.92363 3.44597C1.32905 4.75702 0 4.02263 0 5.33955V8.33723C0 8.84985 0.050364 9.34261 0.771689 9.42371C1.47091 9.5023 1.31366 10.0004 2.32234 10.0004H7.37105C7.88533 10.0004 8.30363 9.582 8.30363 9.06799C8.30363 8.85488 8.22892 8.6608 8.10833 8.50363C8.39372 8.34395 8.58958 8.04247 8.58958 7.6929C8.58958 7.48035 8.51516 7.28627 8.39484 7.12938C8.68108 6.96997 8.8775 6.66822 8.8775 6.31809C8.8775 6.06387 8.77453 5.83343 8.60861 5.6648C8.82042 5.49393 8.95864 5.23552 8.95864 4.943Z" fill="#FFDB5E"/>
<path d="M5.61905 5.87543H8.02645C8.35382 5.87543 8.66104 5.70036 8.82836 5.41874C8.89719 5.30268 8.85886 5.1525 8.74246 5.08343C8.62635 5.01435 8.47609 5.05323 8.40698 5.16928C8.3278 5.30324 8.18146 5.38602 8.02617 5.38602H5.56114C5.31687 5.38602 5.11821 5.18746 5.11821 4.94332C5.11821 4.69917 5.31687 4.50062 5.56114 4.50062H7.20832C7.34346 4.50062 7.45314 4.39099 7.45314 4.25591C7.45314 4.12084 7.34346 4.01121 7.20832 4.01121H5.56086C5.04658 4.01121 4.62828 4.4293 4.62828 4.94332C4.62828 5.22997 4.76119 5.48362 4.96544 5.65477C4.79336 5.82397 4.6862 6.05888 4.6862 6.31841C4.6862 6.6059 4.81995 6.86039 5.02532 7.03126C4.85436 7.20018 4.74832 7.43425 4.74832 7.69322C4.74832 8.00644 4.90472 8.28274 5.14255 8.45194C4.99594 8.61666 4.90416 8.83116 4.90416 9.06831C4.90416 9.58232 5.32247 10.0004 5.83674 10.0004H7.37116C7.69853 10.0004 8.00603 9.82563 8.17335 9.54401C8.24246 9.42795 8.20413 9.27777 8.08801 9.2087C7.97161 9.14018 7.82136 9.17793 7.75253 9.29399C7.67279 9.42795 7.52645 9.51101 7.37116 9.51101H5.83674C5.59247 9.51101 5.39382 9.31245 5.39382 9.06831C5.39382 8.82416 5.59247 8.62561 5.83674 8.62561H7.65712C7.98448 8.62561 8.29227 8.45054 8.45931 8.16892C8.52842 8.05258 8.49008 7.9024 8.37397 7.83361C8.25673 7.76341 8.10704 7.80284 8.03849 7.9189C7.95762 8.0551 7.81493 8.1362 7.65712 8.1362H5.68089C5.43662 8.1362 5.23797 7.93736 5.23797 7.69322C5.23797 7.44907 5.43662 7.25052 5.68089 7.25052H7.94475C8.27212 7.25052 8.57962 7.07573 8.74694 6.79411C8.81605 6.67805 8.77772 6.52787 8.6616 6.4588C8.54492 6.39 8.39495 6.42803 8.32612 6.54409C8.24526 6.68001 8.10256 6.76111 7.94475 6.76111H5.61905C5.37479 6.76111 5.17613 6.56255 5.17613 6.31841C5.17613 6.07426 5.37451 5.87543 5.61905 5.87543Z" fill="#EE9547"/>
</svg>
