<svg width="14" height="14" viewBox="0 0 14 14" fill="none" xmlns="http://www.w3.org/2000/svg">
<g clip-path="url(#clip0_161_974)">
<path d="M7.67612 0.725971L9.25514 3.92547C9.36494 4.148 9.57725 4.30219 9.82285 4.33782L13.3538 4.85092C13.9723 4.94086 14.2191 5.70073 13.7717 6.13673L11.2167 8.62718C11.0392 8.80036 10.958 9.05004 11 9.29447L11.6031 12.8111C11.7088 13.427 11.0622 13.8966 10.5091 13.606L7.35109 11.9458C7.13148 11.8305 6.86895 11.8305 6.64934 11.9458L3.49131 13.606C2.9382 13.8969 2.29164 13.427 2.39735 12.8111L3.0004 9.29447C3.04245 9.05004 2.96127 8.80036 2.78371 8.62718L0.228727 6.13673C-0.218666 5.70044 0.0281012 4.94057 0.646625 4.85092L4.17758 4.33782C4.42318 4.30219 4.63549 4.148 4.74529 3.92547L6.32431 0.725971C6.60057 0.165562 7.39957 0.165562 7.67612 0.725971Z" fill="#FFCD00"/>
</g>
<defs>
<clipPath id="clip0_161_974">
<rect width="14" height="14" fill="white"/>
</clipPath>
</defs>
</svg>
