<svg width="12" height="23" viewBox="0 0 12 23" fill="none" xmlns="http://www.w3.org/2000/svg">
<path fill-rule="evenodd" clip-rule="evenodd" d="M11.2645 0.25986C11.341 0.342024 11.4017 0.439631 11.4431 0.547092C11.4845 0.654552 11.5059 0.769753 11.5059 0.886098C11.5059 1.00244 11.4845 1.11764 11.4431 1.2251C11.4017 1.33256 11.341 1.43017 11.2645 1.51234L1.98493 11.5003L11.2645 21.4883C11.3409 21.5705 11.4015 21.6681 11.4428 21.7756C11.4841 21.883 11.5054 21.9982 11.5054 22.1145C11.5054 22.2308 11.4841 22.346 11.4428 22.4534C11.4015 22.5609 11.3409 22.6585 11.2645 22.7407C11.1881 22.823 11.0974 22.8882 10.9976 22.9327C10.8978 22.9772 10.7908 23.0001 10.6827 23.0001C10.5747 23.0001 10.4677 22.9772 10.3679 22.9327C10.2681 22.8882 10.1774 22.823 10.101 22.7407L0.241425 12.1265C0.164909 12.0444 0.104202 11.9468 0.062782 11.8393C0.0213607 11.7318 3.92485e-05 11.6166 3.92536e-05 11.5003C3.92587e-05 11.3839 0.0213607 11.2687 0.062782 11.1613C0.104202 11.0538 0.16491 10.9562 0.241425 10.8741L10.101 0.25986C10.1774 0.177488 10.268 0.112135 10.3678 0.0675439C10.4677 0.0229529 10.5747 -4.06826e-08 10.6827 -3.5961e-08C10.7908 -3.12393e-08 10.8978 0.0229529 10.9977 0.067544C11.0975 0.112135 11.1881 0.177488 11.2645 0.25986Z" fill="black"/>
</svg>
