<svg width="35" height="24" viewBox="0 0 35 24" fill="none" xmlns="http://www.w3.org/2000/svg">
<path d="M26.5859 11.3307L22.6359 7.38071C22.4583 7.19126 22.3613 6.94012 22.3655 6.68044C22.3697 6.42076 22.4748 6.1729 22.6585 5.98932C22.8422 5.80574 23.0902 5.70083 23.3499 5.6968C23.6095 5.69277 23.8606 5.78992 24.0499 5.96771L29.7069 11.6237C29.8001 11.7164 29.8741 11.8265 29.9245 11.9479C29.975 12.0692 30.001 12.1993 30.001 12.3307C30.001 12.4621 29.975 12.5922 29.9245 12.7136C29.8741 12.8349 29.8001 12.9451 29.7069 13.0377L24.0499 18.6947C23.9577 18.7902 23.8474 18.8664 23.7253 18.9188C23.6033 18.9712 23.4721 18.9988 23.3393 19C23.2066 19.0011 23.0749 18.9758 22.952 18.9255C22.8291 18.8753 22.7174 18.801 22.6235 18.7071C22.5297 18.6132 22.4554 18.5016 22.4051 18.3787C22.3548 18.2558 22.3295 18.1241 22.3307 17.9913C22.3318 17.8585 22.3594 17.7273 22.4118 17.6053C22.4642 17.4833 22.5404 17.373 22.6359 17.2807L26.5859 13.3307L16.9999 13.3307C16.7347 13.3307 16.4804 13.2254 16.2928 13.0378C16.1053 12.8503 15.9999 12.5959 15.9999 12.3307C15.9999 12.0655 16.1053 11.8111 16.2928 11.6236C16.4804 11.4361 16.7347 11.3307 16.9999 11.3307L26.5859 11.3307Z" fill="#2E2E31"/>
<path d="M5 12.5C5 11.9477 5.44772 11.5 6 11.5H13C13.5523 11.5 14 11.9477 14 12.5C14 13.0523 13.5523 13.5 13 13.5H6C5.44772 13.5 5 13.0523 5 12.5Z" fill="#2E2E31"/>
<path d="M0 12.5C0 11.9477 0.447715 11.5 1 11.5H2C2.55228 11.5 3 11.9477 3 12.5C3 13.0523 2.55228 13.5 2 13.5H1C0.447715 13.5 0 13.0523 0 12.5Z" fill="#2E2E31"/>
</svg>
