<svg width="18" height="19" viewBox="0 0 18 19" fill="none" xmlns="http://www.w3.org/2000/svg">
<path d="M14.4001 14.94C14.4001 12.036 11.9561 10.98 9.23098 10.98C6.50589 10.98 4.14014 11.86 4.14014 14.94" stroke="black" stroke-width="1.62" stroke-linecap="round"/>
<path d="M11.43 6.30006C11.43 7.64211 10.3421 8.73006 9.00001 8.73006C7.65796 8.73006 6.57001 7.64211 6.57001 6.30006C6.57001 4.95801 7.65796 3.87006 9.00001 3.87006C10.3421 3.87006 11.43 4.95801 11.43 6.30006Z" stroke="black" stroke-width="1.62"/>
<path d="M17.19 9.1875C17.19 13.8301 13.5075 17.565 9 17.565C4.49245 17.565 0.81 13.8301 0.81 9.1875C0.81 4.54491 4.49245 0.81 9 0.81C13.5075 0.81 17.19 4.54491 17.19 9.1875Z" stroke="black" stroke-width="1.62"/>
</svg>
