<svg width="9" height="7" viewBox="0 0 9 7" fill="none" xmlns="http://www.w3.org/2000/svg">
<path d="M8.73531 0.230793C8.89827 0.384767 8.99337 0.597121 8.99971 0.821162C9.00606 1.0452 8.92312 1.26259 8.76914 1.42553L3.97652 6.49754C3.89884 6.5796 3.8055 6.64526 3.70201 6.69065C3.59851 6.73604 3.48697 6.76024 3.37396 6.76182C3.26095 6.76339 3.14878 6.74231 3.04406 6.69983C2.93934 6.65734 2.8442 6.59431 2.76426 6.51445L0.226992 3.97845C0.0775975 3.8182 -0.00373415 3.60625 0.000131766 3.38725C0.00399769 3.16825 0.0927594 2.9593 0.247717 2.80442C0.402674 2.64954 0.611729 2.56082 0.830838 2.55696C1.04995 2.55309 1.262 2.63438 1.42233 2.7837L3.34502 4.70431L7.53998 0.264606C7.69403 0.101735 7.90649 0.00667956 8.13064 0.000338746C8.35479 -0.00600206 8.57229 0.0768913 8.73531 0.230793Z" fill="black"/>
</svg>
