<svg width="15" height="15" viewBox="0 0 15 15" fill="none" xmlns="http://www.w3.org/2000/svg">
<path d="M9.37541 13.7909V10.6659C9.37541 10.1686 9.17787 9.69168 8.82624 9.34005C8.47461 8.98842 7.9977 8.79087 7.50042 8.79087C7.00314 8.79087 6.52622 8.98842 6.17459 9.34005C5.82296 9.69168 5.62542 10.1686 5.62542 10.6659V13.7909H2.50042C2.1689 13.7909 1.85096 13.6592 1.61654 13.4248C1.38212 13.1903 1.25042 12.8724 1.25042 12.5409V5.74838C1.25042 5.53252 1.30632 5.32034 1.41267 5.1325C1.51902 4.94466 1.6722 4.78756 1.8573 4.6765L6.85729 1.67651C7.05156 1.55994 7.27386 1.49837 7.50042 1.49837C7.72697 1.49837 7.94927 1.55994 8.14354 1.67651L13.1435 4.6765C13.3286 4.78756 13.4818 4.94466 13.5882 5.1325C13.6945 5.32034 13.7504 5.53252 13.7504 5.74838V12.5409C13.7504 12.8724 13.6187 13.1903 13.3843 13.4248C13.1499 13.6592 12.8319 13.7909 12.5004 13.7909H9.37541Z" fill="#2E2E31"/>
</svg>
