<svg width="18" height="35" viewBox="0 0 18 35" fill="none" xmlns="http://www.w3.org/2000/svg">
<rect x="17.0814" y="24.5004" width="15.2224" height="17.9407" transform="rotate(175.568 17.0814 24.5004)" fill="#2C2E3E"/>
<path fill-rule="evenodd" clip-rule="evenodd" d="M9.5371 24.926L9.51736 24.7047L1.90411 25.6765L2.236 29.9586C2.63021 32.1964 4.97878 34.9246 10.1966 34.0458C15.5801 34.0424 17.3682 31.0513 17.4129 28.7823L17.081 24.5002L9.5371 24.926Z" fill="#2C2E3E"/>
<path fill-rule="evenodd" clip-rule="evenodd" d="M8.04678 7.20596L8.05225 7.20554L15.6949 6.61317C15.4317 1.52967 12.9004 0.177244 11.4369 0.290676L7.53971 0.592737L7.53424 0.593161L3.63707 0.895223C2.17358 1.00865 -0.00532366 2.72616 0.517995 7.7895L8.04678 7.20596Z" fill="#2C2E3E"/>
<path d="M3.19184 9.92713L4.02368 20.6594C4.08417 21.4399 3.41833 21.7605 3.07784 21.8233L2.09476 9.1397C2.84873 9.29938 3.1403 9.73118 3.19184 9.92713Z" fill="#F2F2F2"/>
<path d="M13.4363 9.13301L14.2681 19.8653C14.3286 20.6458 15.0359 20.86 15.382 20.8695L14.3989 8.18593C13.6786 8.45988 13.457 8.93146 13.4363 9.13301Z" fill="#F2F2F2"/>
<path fill-rule="evenodd" clip-rule="evenodd" d="M9.46769 26.1714C11.0019 26.1084 13.5434 25.7418 14.6823 24.7685C15.3907 24.163 15.0149 23.1197 14.5404 22.3176L13.7718 21.0182C13.5525 20.6475 13.3849 20.1242 12.9556 20.0896C12.8169 20.0784 12.6465 20.1097 12.441 20.211C11.9978 20.4588 10.716 20.9804 9.0766 21.1255C7.43442 21.2348 6.08755 20.9169 5.61143 20.7404C5.39277 20.672 5.21964 20.6673 5.08428 20.6997C4.66542 20.8001 4.58052 21.3429 4.42096 21.743L3.8617 23.1453C3.51647 24.0109 3.30594 25.0997 4.09922 25.5887C5.37452 26.375 7.94207 26.3455 9.46769 26.1714Z" fill="#F2F2F2"/>
<path fill-rule="evenodd" clip-rule="evenodd" d="M7.34287 4.6434C7.73395 4.60913 8.12668 4.57869 8.51836 4.55229C9.84307 4.46299 11.2479 4.81994 12.2859 5.2059C12.9666 5.45901 13.2559 6.22469 13.0034 6.90563C12.6659 7.81587 11.4442 8.30714 10.4841 8.1632C9.77212 8.05644 9.0164 8.00544 8.4598 7.98847C8.28182 7.98304 8.10523 7.99673 7.93022 8.02951C7.38287 8.13205 6.64404 8.29889 5.95698 8.51409C5.03057 8.80425 3.74773 8.5071 3.27401 7.65973C2.91963 7.02583 3.08747 6.22472 3.72105 5.86974C4.68715 5.32845 6.02022 4.75929 7.34287 4.6434Z" fill="#F2F2F2"/>
<path d="M16.4382 30.2757C15.2861 30.4195 12.9696 31.2534 12.9209 33.4383C13.8672 33.2196 15.8957 32.2808 16.4382 30.2757Z" fill="#E0E0E0"/>
<path d="M7.53987 33.6604C7.02205 32.6211 5.46706 30.7124 3.38963 31.391C3.9099 32.2113 5.46832 33.8135 7.53987 33.6604Z" fill="#E0E0E0"/>
<path d="M3.48736 1.7793C3.56831 2.35467 3.2791 3.5949 1.47467 3.95287C1.58 3.43577 2.13001 2.27712 3.48736 1.7793Z" fill="#FF2626"/>
<path d="M3.48736 1.7793C3.56831 2.35467 3.2791 3.5949 1.47467 3.95287C1.58 3.43577 2.13001 2.27712 3.48736 1.7793Z" fill="url(#paint0_linear_161_1990)"/>
<path d="M14.1425 2.854C13.5866 3.02305 12.3166 2.92934 11.6835 1.2021C12.2107 1.2261 13.4405 1.59008 14.1425 2.854Z" fill="#FF2626"/>
<path d="M14.1425 2.854C13.5866 3.02305 12.3166 2.92934 11.6835 1.2021C12.2107 1.2261 13.4405 1.59008 14.1425 2.854Z" fill="url(#paint1_linear_161_1990)"/>
<defs>
<linearGradient id="paint0_linear_161_1990" x1="2.55987" y1="3.86876" x2="2.40442" y2="1.86324" gradientUnits="userSpaceOnUse">
<stop stop-color="#FFA3A3"/>
<stop offset="1" stop-color="#FC3030" stop-opacity="0"/>
</linearGradient>
<linearGradient id="paint1_linear_161_1990" x1="11.9346" y1="2.26119" x2="13.8919" y2="1.79711" gradientUnits="userSpaceOnUse">
<stop stop-color="#FFA3A3"/>
<stop offset="1" stop-color="#FC3030" stop-opacity="0"/>
</linearGradient>
</defs>
</svg>
