<svg width="4" height="16" viewBox="0 0 4 16" fill="none" xmlns="http://www.w3.org/2000/svg">
<path d="M1.03664 1.59286C1.03664 1.90019 1.3906 2.14932 1.82724 2.14932C2.26387 2.14932 2.61783 1.90019 2.61783 1.59286C2.61783 1.28554 2.26387 1.0364 1.82724 1.0364C1.3906 1.0364 1.03664 1.28554 1.03664 1.59286Z" fill="black" stroke="black" stroke-width="2"/>
<path d="M1.03664 8.00005C1.03664 8.30737 1.3906 8.55651 1.82724 8.55651C2.26387 8.55651 2.61783 8.30737 2.61783 8.00005C2.61783 7.69273 2.26387 7.44359 1.82724 7.44359C1.3906 7.44359 1.03664 7.69273 1.03664 8.00005Z" fill="black" stroke="black" stroke-width="2"/>
<path d="M1.03664 14.4072C1.03664 14.7146 1.3906 14.9637 1.82724 14.9637C2.26387 14.9637 2.61783 14.7146 2.61783 14.4072C2.61783 14.0999 2.26387 13.8508 1.82724 13.8508C1.3906 13.8508 1.03664 14.0999 1.03664 14.4072Z" fill="black" stroke="black" stroke-width="2"/>
</svg>
