<svg width="9" height="9" viewBox="0 0 9 9" fill="none" xmlns="http://www.w3.org/2000/svg">
<path d="M3.65174 8.66334C3.60824 8.61252 3.42224 8.4206 3.26924 8.24183C2.30699 7.19375 0.731997 4.45961 0.251249 3.02858C0.173999 2.81125 0.0105 2.26179 0 1.96822C0 1.68692 0.0539998 1.41877 0.163499 1.16288C0.316499 0.8439 0.557248 0.588014 0.841497 0.447802C1.03875 0.35754 1.62899 0.217328 1.63949 0.217328C2.28524 0.0771166 3.33449 0 4.49398 0C5.59873 0 6.60523 0.0771165 7.26072 0.191915C7.27122 0.20506 8.00472 0.345272 8.25597 0.498629C8.71497 0.779929 8.99997 1.32938 8.99997 1.9174V1.96822C8.98872 2.35118 8.70372 3.15652 8.69322 3.15652C8.21172 4.51044 6.71398 7.18148 5.71873 8.25498C5.71873 8.25498 5.46298 8.55731 5.30323 8.68876C5.07373 8.89382 4.78948 8.99547 4.50523 8.99547C4.18799 8.99547 3.89249 8.88067 3.65174 8.66334Z" fill="black"/>
</svg>
