<svg width="28" height="28" viewBox="0 0 28 28" fill="none" xmlns="http://www.w3.org/2000/svg">
<path fill-rule="evenodd" clip-rule="evenodd" d="M20.1026 0C24.8261 0 27.9999 3.31405 27.9999 8.24608V19.7398C27.9999 24.6719 24.8261 27.9859 20.1026 27.9859H7.89727C3.17376 27.9859 0 24.6719 0 19.7398V8.24608C0 3.31405 3.17376 0 7.89727 0H20.1026ZM20.1026 1.95251H7.89727C4.28724 1.95251 1.95348 4.42177 1.95348 8.24608V19.7398C1.95348 23.5641 4.28724 26.0334 7.89727 26.0334H20.1026C23.714 26.0334 26.0464 23.5641 26.0464 19.7398V8.24608C26.0464 4.42177 23.714 1.95251 20.1026 1.95251ZM14 8.23606C14.5391 8.23606 14.9767 8.67342 14.9767 9.21231V13.0037L18.7749 13.0039C19.3141 13.0039 19.7517 13.4413 19.7517 13.9802C19.7517 14.5191 19.3141 14.9565 18.7749 14.9565L14.9767 14.9562V18.7496C14.9767 19.2885 14.5391 19.7259 14 19.7259C13.4608 19.7259 13.0232 19.2885 13.0232 18.7496V14.9562L9.22499 14.9565C8.68453 14.9565 8.24825 14.5191 8.24825 13.9802C8.24825 13.4413 8.68453 13.0039 9.22499 13.0039L13.0232 13.0037V9.21231C13.0232 8.67342 13.4608 8.23606 14 8.23606Z" fill="#2E2E31"/>
</svg>
