<svg width="23" height="16" viewBox="0 0 23 16" fill="none" xmlns="http://www.w3.org/2000/svg">
<g opacity="0.9">
<path d="M0 4.66955H22.9999V11.135H0V4.66955Z" fill="white"/>
<path d="M19.4062 0H3.59374C1.21217 0 0 1.76903 0 3.95114V4.66952H22.9999V3.95114C22.9999 1.76903 21.7878 0 19.4062 0Z" fill="#E05206"/>
<path d="M0 11.8534C0 14.0355 1.21217 15.8045 3.59374 15.8045H19.4062C21.7878 15.8045 22.9999 14.0355 22.9999 11.8534V11.135H0V11.8534Z" fill="#137A08"/>
<path d="M11.4924 10.8656C13.138 10.8656 14.472 9.53226 14.472 7.88751C14.472 6.24277 13.138 4.90943 11.4924 4.90943C9.84685 4.90943 8.51285 6.24277 8.51285 7.88751C8.51285 9.53226 9.84685 10.8656 11.4924 10.8656Z" fill="#E05206"/>
</g>
</svg>
