<svg width="20" height="16" viewBox="0 0 20 16" fill="none" xmlns="http://www.w3.org/2000/svg">
<path d="M20.0001 6.38901V6.94457C20.0001 7.40481 19.627 7.7779 19.1667 7.7779H18.889L17.9822 14.1247C17.865 14.9458 17.1618 15.5557 16.3323 15.5557H3.66772C2.83831 15.5557 2.13511 14.9458 2.01778 14.1247L1.11111 7.7779H0.833336C0.373091 7.7779 0 7.40481 0 6.94457V6.38901C0 5.92876 0.373091 5.55567 0.833336 5.55567H3.17157L6.87922 0.457704C7.24016 -0.0385475 7.93503 -0.148305 8.43135 0.212634C8.92763 0.573572 9.03736 1.26847 8.67642 1.76476L5.91936 5.55567H14.0807L11.3236 1.76472C10.9627 1.26847 11.0725 0.573538 11.5688 0.212599C12.065 -0.14834 12.7599 -0.038617 13.1209 0.457669L16.8285 5.55567H19.1667C19.627 5.55567 20.0001 5.92876 20.0001 6.38901ZM10.8334 12.5001V8.61124C10.8334 8.15099 10.4603 7.7779 10 7.7779C9.53979 7.7779 9.1667 8.15099 9.1667 8.61124V12.5001C9.1667 12.9604 9.53979 13.3335 10 13.3335C10.4603 13.3335 10.8334 12.9604 10.8334 12.5001ZM14.7223 12.5001V8.61124C14.7223 8.15099 14.3492 7.7779 13.8889 7.7779C13.4287 7.7779 13.0556 8.15099 13.0556 8.61124V12.5001C13.0556 12.9604 13.4287 13.3335 13.8889 13.3335C14.3492 13.3335 14.7223 12.9604 14.7223 12.5001ZM6.94447 12.5001V8.61124C6.94447 8.15099 6.57138 7.7779 6.11113 7.7779C5.65089 7.7779 5.2778 8.15099 5.2778 8.61124V12.5001C5.2778 12.9604 5.65089 13.3335 6.11113 13.3335C6.57138 13.3335 6.94447 12.9604 6.94447 12.5001Z" fill="black"/>
</svg>
