<svg width="23" height="16" viewBox="0 0 23 16" fill="none" xmlns="http://www.w3.org/2000/svg">
<g opacity="0.5">
<path d="M0 5.38792H22.9999V10.4166H0V5.38792Z" fill="#F9CB38"/>
<path d="M19.4062 0H3.59374C1.21217 0 0 1.76903 0 3.95114V5.38791H22.9999V3.95114C22.9999 1.76903 21.7878 0 19.4062 0Z" fill="#EC1C24"/>
<path d="M0 11.8534C0 14.0355 1.21217 15.8045 3.59374 15.8045H19.4062C21.7878 15.8045 22.9999 14.0355 22.9999 11.8534V10.4166H0V11.8534Z" fill="#137A08"/>
<path d="M11.4203 5.68445L12.12 7.10147L13.685 7.33064L12.5534 8.43408L12.8207 9.99047L11.4203 9.2552L10.0201 9.99047L10.2875 8.43408L9.1555 7.33064L10.7209 7.10147L11.4203 5.68445Z" fill="#25333A"/>
</g>
</svg>
