<svg width="19" height="19" viewBox="0 0 19 19" fill="none" xmlns="http://www.w3.org/2000/svg">
<path d="M14.8537 6.51637C14.8018 6.40489 14.69 6.33335 14.5668 6.33335H10.8143L14.5177 0.486096C14.5795 0.388572 14.5833 0.265072 14.5276 0.164061C14.4718 0.0627148 14.3654 0 14.2501 0H9.18349C9.06348 0 8.9539 0.0677617 8.90009 0.175119L4.15009 9.67512C4.10099 9.77298 4.10638 9.8895 4.16401 9.9829C4.22197 10.0763 4.32361 10.1333 4.43349 10.1333H7.68977L4.14152 18.5604C4.08103 18.7045 4.13488 18.8717 4.26817 18.9534C4.31946 18.9848 4.37646 19 4.43316 19C4.52404 19 4.61366 18.961 4.67574 18.8876L14.8091 6.85421C14.8885 6.75988 14.9056 6.62814 14.8537 6.51637Z" fill="white"/>
</svg>
