<svg width="37" height="28" viewBox="0 0 37 28" fill="none" xmlns="http://www.w3.org/2000/svg">
<rect x="8.52005" y="17.6141" width="15.1461" height="17.8508" transform="rotate(-66.2757 8.52005 17.6141)" fill="#2C2E3E"/>
<path fill-rule="evenodd" clip-rule="evenodd" d="M11.6883 10.7964L11.8917 10.883L14.6137 3.74803L10.7014 2.02869C8.55328 1.32386 5.05727 2.10318 3.37838 7.09311C0.853734 11.8173 2.63812 14.7903 4.60761 15.8948L8.51988 17.6141L11.6883 10.7964Z" fill="#2C2E3E"/>
<path fill-rule="evenodd" clip-rule="evenodd" d="M27.9329 17.8087L27.9307 17.8137L24.8621 24.7962C29.4451 26.9522 31.82 25.3665 32.4076 24.0295L33.9724 20.4689L33.9746 20.4639L35.5394 16.9033C36.127 15.5662 35.6434 12.8484 30.9559 10.9302L27.9329 17.8087Z" fill="#2C2E3E"/>
<path d="M27.8255 12.2723L18.0202 7.96315C17.3071 7.64976 17.3384 6.91511 17.4433 6.58697L29.0314 11.6796C28.5373 12.2661 28.0216 12.3191 27.8255 12.2723Z" fill="#F2F2F2"/>
<path d="M23.7123 21.6319L13.9069 17.3227C13.1938 17.0093 12.6738 17.5292 12.503 17.8283L24.0911 22.921C24.189 22.1605 23.8793 21.7447 23.7123 21.6319Z" fill="#F2F2F2"/>
<path fill-rule="evenodd" clip-rule="evenodd" d="M10.6285 10.1508C9.96348 11.5263 9.09182 13.9278 9.41096 15.3839C9.60948 16.2897 10.7012 16.4499 11.6276 16.4102L13.1283 16.346C13.5565 16.3277 14.0942 16.4264 14.3261 16.066C14.401 15.9496 14.4536 15.7854 14.4612 15.5576C14.452 15.0524 14.5962 13.6831 15.2386 12.1768C15.9138 10.6849 16.825 9.65264 17.2034 9.31784C17.3661 9.15814 17.4515 9.00845 17.4866 8.87449C17.5952 8.45994 17.1589 8.13057 16.8828 7.80276L15.9153 6.65378C15.318 5.94451 14.4617 5.24864 13.6602 5.71491C12.3718 6.4645 11.1921 8.73068 10.6285 10.1508Z" fill="#F2F2F2"/>
<path fill-rule="evenodd" clip-rule="evenodd" d="M30.5115 18.3947C30.3579 18.7539 30.2002 19.1127 30.0395 19.4687C29.4959 20.6727 28.5231 21.7375 27.6972 22.4668C27.1556 22.9451 26.3481 22.8394 25.8693 22.2982C25.2292 21.5748 25.3719 20.2724 25.9489 19.4978C26.3768 18.9233 26.7764 18.2843 27.0526 17.804C27.141 17.6504 27.2119 17.4891 27.2653 17.3201C27.4323 16.7918 27.6328 16.0654 27.7666 15.3616C27.9471 14.4127 28.81 13.4268 29.7758 13.4091C30.4983 13.3959 31.1222 13.9192 31.1362 14.6417C31.1574 15.7434 31.0308 17.18 30.5115 18.3947Z" fill="#F2F2F2"/>
<path d="M3.75547 14.3386C4.17024 13.2604 4.52632 10.8368 2.6325 9.76813C2.38007 10.7011 2.25126 12.9212 3.75547 14.3386Z" fill="#E0E0E0"/>
<path d="M4.96423 4.94341C6.119 4.97709 8.52353 4.50917 8.90355 2.36812C7.93971 2.43939 5.80247 3.05424 4.96423 4.94341Z" fill="#E0E0E0"/>
<path d="M34.8344 16.357C34.2917 16.1579 33.3395 15.3219 33.8727 13.5709C34.2768 13.9061 35.035 14.9326 34.8344 16.357Z" fill="#FF2626"/>
<path d="M34.8344 16.357C34.2917 16.1579 33.3395 15.3219 33.8727 13.5709C34.2768 13.9061 35.035 14.9326 34.8344 16.357Z" fill="url(#paint0_linear_161_1992)"/>
<path d="M28.8889 25.1992C29.0016 24.6322 29.6801 23.5621 31.4926 23.8177C31.224 24.2689 30.3273 25.1769 28.8889 25.1992Z" fill="#FF2626"/>
<path d="M28.8889 25.1992C29.0016 24.6322 29.6801 23.5621 31.4926 23.8177C31.224 24.2689 30.3273 25.1769 28.8889 25.1992Z" fill="url(#paint1_linear_161_1992)"/>
<defs>
<linearGradient id="paint0_linear_161_1992" x1="33.4369" y1="14.5624" x2="35.2693" y2="15.3676" gradientUnits="userSpaceOnUse">
<stop stop-color="#FFA3A3"/>
<stop offset="1" stop-color="#FC3030" stop-opacity="0"/>
</linearGradient>
<linearGradient id="paint1_linear_161_1992" x1="30.4456" y1="23.5407" x2="29.9337" y2="25.4756" gradientUnits="userSpaceOnUse">
<stop stop-color="#FFA3A3"/>
<stop offset="1" stop-color="#FC3030" stop-opacity="0"/>
</linearGradient>
</defs>
</svg>
