<svg width="21" height="17" viewBox="0 0 21 17" fill="none" xmlns="http://www.w3.org/2000/svg">
<circle cx="12.7198" cy="4.31997" r="3.28985" stroke="black" stroke-width="2.06024"/>
<path d="M19.9199 15.8399C19.9199 11.9679 16.6612 10.5599 13.0278 10.5599C9.39437 10.5599 6.24005 11.7332 6.24005 15.8399" stroke="black" stroke-width="2.06024" stroke-linecap="round"/>
<path d="M2.88831 4.3208C2.88293 4.19665 2.90278 4.0727 2.94666 3.95641C2.99055 3.84013 3.05757 3.73391 3.14367 3.64416C3.22978 3.55441 3.3332 3.48299 3.4477 3.43419C3.5622 3.3854 3.68542 3.36025 3.80992 3.36025C3.93442 3.36025 4.05763 3.3854 4.17213 3.43419C4.28663 3.48299 4.39005 3.55441 4.47616 3.64416C4.56227 3.73391 4.62928 3.84013 4.67317 3.95641C4.71706 4.0727 4.7369 4.19665 4.73152 4.3208V6.27949H6.68873C6.93338 6.27949 7.16802 6.3765 7.34101 6.54917C7.51401 6.72184 7.6112 6.95603 7.6112 7.20022C7.6112 7.44441 7.51401 7.6786 7.34101 7.85127C7.16802 8.02394 6.93338 8.12094 6.68873 8.12094H4.72979V10.0796C4.73518 10.2038 4.71533 10.3277 4.67144 10.444C4.62756 10.5603 4.56054 10.6665 4.47443 10.7563C4.38832 10.846 4.2849 10.9174 4.1704 10.9662C4.0559 11.015 3.93269 11.0402 3.80819 11.0402C3.68369 11.0402 3.56048 11.015 3.44598 10.9662C3.33148 10.9174 3.22806 10.846 3.14195 10.7563C3.05584 10.6665 2.98882 10.5603 2.94494 10.444C2.90105 10.3277 2.8812 10.2038 2.88659 10.0796V8.12094H0.922464C0.677811 8.12094 0.443179 8.02394 0.270184 7.85127C0.0971882 7.6786 0 7.44441 0 7.20022C0 6.95603 0.0971882 6.72184 0.270184 6.54917C0.443179 6.3765 0.677811 6.27949 0.922464 6.27949H2.88831V4.3208Z" fill="black"/>
</svg>
