<svg width="36" height="34" viewBox="0 0 36 34" fill="none" xmlns="http://www.w3.org/2000/svg">
<rect x="18.7532" y="6.17204" width="15.3534" height="18.0951" transform="rotate(49.1562 18.7532 6.17204)" fill="#2C2E3E"/>
<path fill-rule="evenodd" clip-rule="evenodd" d="M23.6153 12.0404L23.4475 12.1889L28.7942 17.7868L32.0713 14.9537C33.6517 13.294 34.4601 9.75432 30.6229 6.04518C27.3971 1.67744 23.8987 2.01677 22.0302 3.33897L18.7532 6.17201L23.6153 12.0404Z" fill="#2C2E3E"/>
<path fill-rule="evenodd" clip-rule="evenodd" d="M10.1241 23.8591L10.1205 23.8549L5.06411 18.0061C1.09539 21.2632 1.51313 24.1275 2.48138 25.2475L5.05975 28.23L5.06337 28.2342L7.64175 31.2166C8.60999 32.3366 11.3086 33.077 15.1052 29.6208L10.1241 23.8591Z" fill="#2C2E3E"/>
<path d="M15.2396 26.1708L23.4529 19.0703C24.0503 18.5539 24.7092 18.9024 24.9639 19.1412L15.2573 27.5327C14.9355 26.8251 15.1115 26.3299 15.2396 26.1708Z" fill="#F2F2F2"/>
<path d="M8.46195 18.3308L16.6752 11.2303C17.2726 10.714 17.023 10.0116 16.8235 9.72498L7.11689 18.1165C7.77052 18.5372 8.28594 18.4347 8.46195 18.3308Z" fill="#F2F2F2"/>
<path fill-rule="evenodd" clip-rule="evenodd" d="M24.6677 11.3514C23.698 10.1438 21.879 8.3004 20.4071 7.95869C19.4915 7.74614 18.8696 8.67578 18.5026 9.54113L17.9081 10.9429C17.7385 11.3429 17.414 11.7922 17.643 12.1614C17.717 12.2807 17.8444 12.4002 18.0496 12.5064C18.5161 12.7178 19.7069 13.4459 20.8062 14.6898C21.878 15.9573 22.4263 17.2409 22.5681 17.733C22.6435 17.9514 22.7433 18.0948 22.8507 18.1852C23.1829 18.4652 23.6744 18.2091 24.0946 18.099L25.5677 17.7135C26.477 17.4755 27.4868 16.9945 27.4088 16.0578C27.2835 14.5519 25.7225 12.4855 24.6677 11.3514Z" fill="#F2F2F2"/>
<path fill-rule="evenodd" clip-rule="evenodd" d="M8.4657 25.9644C8.20376 25.6675 7.94392 25.3669 7.688 25.0648C6.82242 24.043 6.27109 22.689 5.96294 21.6154C5.76086 20.9113 6.20917 20.2181 6.91304 20.0154C7.85392 19.7444 8.98413 20.4419 9.44206 21.3074C9.78169 21.9492 10.1927 22.5932 10.5122 23.0551C10.6143 23.2028 10.7312 23.338 10.8626 23.4604C11.2735 23.8433 11.8512 24.3431 12.4372 24.772C13.2274 25.3502 13.7542 26.5694 13.35 27.4612C13.0477 28.1284 12.2969 28.4718 11.6295 28.17C10.6117 27.7099 9.35163 26.9686 8.4657 25.9644Z" fill="#F2F2F2"/>
<path d="M23.826 3.23622C24.6325 4.08529 26.6962 5.46631 28.4989 4.1978C27.7548 3.56059 25.7783 2.47618 23.826 3.23622Z" fill="#E0E0E0"/>
<path d="M31.9009 8.43279C31.3674 9.47526 30.749 11.8802 32.5436 13.1601C32.8979 12.2467 33.2654 10.0225 31.9009 8.43279Z" fill="#E0E0E0"/>
<path d="M8.44918 30.809C8.86774 30.3988 10.0476 29.891 11.4184 31.1414C10.9356 31.3654 9.66589 31.6127 8.44918 30.809Z" fill="#FF2626"/>
<path d="M8.44918 30.809C8.86774 30.3988 10.0476 29.891 11.4184 31.1414C10.9356 31.3654 9.66589 31.6127 8.44918 30.809Z" fill="url(#paint0_linear_161_1988)"/>
<path d="M2.94266 21.5168C3.41269 21.8668 4.097 22.9538 3.07399 24.5017C2.77786 24.0595 2.33701 22.8433 2.94266 21.5168Z" fill="#FF2626"/>
<path d="M2.94266 21.5168C3.41269 21.8668 4.097 22.9538 3.07399 24.5017C2.77786 24.0595 2.33701 22.8433 2.94266 21.5168Z" fill="url(#paint1_linear_161_1988)"/>
<defs>
<linearGradient id="paint0_linear_161_1988" x1="10.7005" y1="30.3109" x2="9.16566" y2="31.6377" gradientUnits="userSpaceOnUse">
<stop stop-color="#FFA3A3"/>
<stop offset="1" stop-color="#FC3030" stop-opacity="0"/>
</linearGradient>
<linearGradient id="paint1_linear_161_1988" x1="3.7833" y1="23.6638" x2="2.23482" y2="22.353" gradientUnits="userSpaceOnUse">
<stop stop-color="#FFA3A3"/>
<stop offset="1" stop-color="#FC3030" stop-opacity="0"/>
</linearGradient>
</defs>
</svg>
