<svg width="20" height="20" viewBox="0 0 20 20" fill="none" xmlns="http://www.w3.org/2000/svg">
<path d="M9.62041 19.2312C14.9336 19.2312 19.2408 14.9262 19.2408 9.61561C19.2408 4.30505 14.9336 0 9.62041 0C4.30721 0 0 4.30505 0 9.61561C0 14.9262 4.30721 19.2312 9.62041 19.2312Z" fill="#2E2E31"/>
<path d="M6.00339 10.1538C7.36357 10.1538 8.46622 9.05174 8.46622 7.69224C8.46622 6.33274 7.36357 5.23064 6.00339 5.23064C4.64321 5.23064 3.54056 6.33274 3.54056 7.69224C3.54056 9.05174 4.64321 10.1538 6.00339 10.1538Z" fill="white"/>
<path d="M6.77482 12.6158C6.79497 12.9894 6.95755 13.3411 7.22915 13.5987C7.50075 13.8562 7.86072 13.9999 8.23509 14.0004H12.2372C12.6116 13.9999 12.9715 13.8562 13.2431 13.5987C13.5147 13.3411 13.6773 12.9894 13.6975 12.6158H6.77482Z" fill="white"/>
<path d="M5.07954 9.80794C5.80213 9.80794 6.38791 9.22245 6.38791 8.50022C6.38791 7.77798 5.80213 7.19249 5.07954 7.19249C4.35694 7.19249 3.77116 7.77798 3.77116 8.50022C3.77116 9.22245 4.35694 9.80794 5.07954 9.80794Z" fill="#3F3D56"/>
<path d="M5.54138 8.26958C5.71141 8.26958 5.84924 8.13182 5.84924 7.96188C5.84924 7.79194 5.71141 7.65418 5.54138 7.65418C5.37136 7.65418 5.23353 7.79194 5.23353 7.96188C5.23353 8.13182 5.37136 8.26958 5.54138 8.26958Z" fill="white"/>
<path d="M14.0072 10.1924C15.3673 10.1924 16.47 9.09027 16.47 7.73077C16.47 6.37127 15.3673 5.26918 14.0072 5.26918C12.647 5.26918 11.5443 6.37127 11.5443 7.73077C11.5443 9.09027 12.647 10.1924 14.0072 10.1924Z" fill="white"/>
<path d="M13.0837 9.80794C13.8063 9.80794 14.392 9.22245 14.392 8.50022C14.392 7.77798 13.8063 7.19249 13.0837 7.19249C12.3611 7.19249 11.7753 7.77798 11.7753 8.50022C11.7753 9.22245 12.3611 9.80794 13.0837 9.80794Z" fill="#3F3D56"/>
<path d="M13.5455 8.26958C13.7155 8.26958 13.8534 8.13182 13.8534 7.96188C13.8534 7.79194 13.7155 7.65418 13.5455 7.65418C13.3755 7.65418 13.2377 7.79194 13.2377 7.96188C13.2377 8.13182 13.3755 8.26958 13.5455 8.26958Z" fill="white"/>
<path d="M9.77448 11.3847C10.2845 11.3847 10.698 10.9714 10.698 10.4616C10.698 9.95175 10.2845 9.53847 9.77448 9.53847C9.26441 9.53847 8.85092 9.95175 8.85092 10.4616C8.85092 10.9714 9.26441 11.3847 9.77448 11.3847Z" fill="#3F3D56"/>
<path d="M11.1596 18.6923H9.46638V20H11.1596V18.6923Z" fill="#2E2E31"/>
</svg>
