<svg width="22" height="17" viewBox="0 0 22 17" fill="none" xmlns="http://www.w3.org/2000/svg">
<path d="M15.6068 0C13.5454 0 11.784 1.3213 10.8163 2.23224C9.84852 1.3213 8.09105 0 6.03067 0C2.47934 0 0 2.22605 0 5.41257C0 8.92367 3.07926 11.1931 6.05821 13.3882C7.46458 14.4256 8.92012 15.4975 10.0364 16.6861C10.2242 16.8851 10.4996 17.0001 10.7887 17.0001H10.8458C11.1359 17.0001 11.4103 16.8842 11.5971 16.6861C12.7154 15.4975 14.1699 14.4247 15.5773 13.3882C18.5552 11.1939 21.6365 8.92455 21.6365 5.41257C21.6365 2.22605 19.1571 0 15.6068 0Z" fill="black"/>
</svg>
