<svg width="26" height="28" viewBox="0 0 26 28" fill="none" xmlns="http://www.w3.org/2000/svg">
<path fill-rule="evenodd" clip-rule="evenodd" d="M4.46254 15.0553L2.16429 24.7346C2.06332 25.1585 2.3188 25.4078 2.43493 25.4956C2.55106 25.5834 2.85905 25.7661 3.24581 25.5572L23.4601 14.5841C23.8166 14.3894 23.856 14.0533 23.856 13.92C23.858 13.7888 23.8156 13.4618 23.4722 13.27L3.29408 2.23813C2.91136 2.0292 2.59832 2.21289 2.48219 2.3007C2.36405 2.39052 2.10251 2.64386 2.19945 3.06979L4.46959 12.9146L15.2342 12.8582C15.8249 12.8551 16.3076 13.3315 16.3117 13.923C16.3157 14.5144 15.8371 14.9969 15.2463 14.9999L4.46254 15.0553ZM0.835401 26.9369C0.132566 26.2344 -0.154229 25.2331 0.0800384 24.24L2.51764 13.9774L0.113187 3.5502C-0.145334 2.42583 0.264639 1.29339 1.1876 0.594956C2.10955 -0.104486 3.31022 -0.192286 4.32105 0.359813L24.4992 11.3917C25.4272 11.8994 25.9978 12.8673 25.9998 13.9231C25.9968 14.9839 25.4162 15.9578 24.4811 16.4645L4.26776 27.4365C3.25189 27.9896 2.05122 27.8977 1.13431 27.1973C1.02726 27.1145 0.928304 27.0297 0.835401 26.9369Z" fill="#2E2E31"/>
</svg>
