<svg width="17" height="17" viewBox="0 0 17 17" fill="none" xmlns="http://www.w3.org/2000/svg">
<path d="M8.5001 15.6293C5.1943 11.3156 3.54176 8.24637 3.54176 6.42099C3.54176 5.10596 4.06416 3.84479 4.99402 2.91492C5.92389 1.98505 7.18507 1.46266 8.5001 1.46266C9.81513 1.46266 11.0763 1.98505 12.0062 2.91492C12.936 3.84479 13.4584 5.10596 13.4584 6.42099C13.4584 8.24637 11.8059 11.3156 8.5001 15.6293ZM8.5001 9.25433C9.25155 9.25433 9.97222 8.95582 10.5036 8.42446C11.0349 7.89311 11.3334 7.17244 11.3334 6.42099C11.3334 5.66955 11.0349 4.94888 10.5036 4.41752C9.97222 3.88617 9.25155 3.58766 8.5001 3.58766C7.74865 3.58766 7.02798 3.88617 6.49663 4.41752C5.96527 4.94888 5.66676 5.66955 5.66676 6.42099C5.66676 7.17244 5.96527 7.89311 6.49663 8.42446C7.02798 8.95582 7.74865 9.25433 8.5001 9.25433Z" fill="#2E2E31"/>
</svg>
