<svg width="7" height="7" viewBox="0 0 7 7" fill="none" xmlns="http://www.w3.org/2000/svg">
<path d="M3.27145 0.166059C3.34337 -0.0552896 3.65652 -0.0552887 3.72844 0.16606L4.38996 2.20202C4.42213 2.30101 4.51437 2.36803 4.61846 2.36803H6.75919C6.99193 2.36803 7.0887 2.66585 6.90041 2.80265L5.16852 4.06094C5.08431 4.12212 5.04908 4.23056 5.08124 4.32955L5.74276 6.36551C5.81468 6.58686 5.56134 6.77092 5.37305 6.63412L3.64116 5.37583C3.55696 5.31465 3.44293 5.31465 3.35873 5.37583L1.62684 6.63412C1.43855 6.77092 1.18521 6.58686 1.25713 6.36551L1.91865 4.32955C1.95081 4.23056 1.91558 4.12212 1.83137 4.06094L0.0994839 2.80265C-0.0888067 2.66585 0.00796119 2.36803 0.240701 2.36803H2.38143C2.48552 2.36803 2.57776 2.30101 2.60993 2.20202L3.27145 0.166059Z" fill="black"/>
</svg>
