<svg width="23" height="16" viewBox="0 0 23 16" fill="none" xmlns="http://www.w3.org/2000/svg">
<g opacity="0.5">
<path d="M5.75 0H17.25V15.8045H5.75V0Z" fill="#E6E7E8"/>
<path d="M3.59374 0C1.21217 0 0 1.76903 0 3.95114V11.8534C0 14.0355 1.21217 15.8045 3.59374 15.8045H5.74998V0H3.59374ZM19.4062 0H17.2499V15.8045H19.4062C21.7878 15.8045 22.9999 14.0355 22.9999 11.8534V3.95114C22.9999 1.76903 21.7878 0 19.4062 0Z" fill="#EC1C24"/>
<path fill-rule="evenodd" clip-rule="evenodd" d="M15.906 7.77331C15.7418 7.69895 15.7141 7.64651 15.763 7.46512C15.8848 7.01146 16.0103 6.55959 16.1335 6.10665C16.1439 6.06965 16.1533 6.03158 16.1673 5.97734C16.0149 6.00787 15.8726 6.03517 15.7303 6.06606C15.4424 6.12712 15.1564 6.18926 14.8692 6.24997C14.6816 6.28912 14.5958 6.23668 14.5426 6.05133C14.4926 5.87604 14.4434 5.7004 14.3632 5.49997C14.3449 5.53014 14.3316 5.56498 14.3083 5.59048C13.9794 5.96153 13.6488 6.3315 13.3178 6.70255C13.2154 6.81534 13.1015 6.86455 13.021 6.82001C12.9027 6.7532 12.9071 6.63502 12.9265 6.52475C13.0138 6.04307 13.1044 5.56247 13.1942 5.08079C13.26 4.73129 13.3257 4.38359 13.3933 4.01937C13.3592 4.0323 13.3361 4.03877 13.3157 4.04882C13.1295 4.14509 12.9455 4.24315 12.759 4.33726C12.5304 4.45184 12.4154 4.41412 12.2961 4.19322C12.0435 3.72519 11.793 3.25644 11.5411 2.78805C11.5281 2.76506 11.5195 2.74208 11.4998 2.71262L11.4584 2.78805C11.2072 3.25644 10.9564 3.72519 10.7041 4.19322C10.5844 4.41412 10.4691 4.4522 10.2405 4.33726C10.054 4.24315 9.86999 4.14509 9.68383 4.04882C9.66335 4.03877 9.64035 4.0323 9.60621 4.01937C9.67377 4.38359 9.73954 4.73129 9.8053 5.08079C9.89515 5.56103 9.98607 6.04163 10.0727 6.52475C10.0928 6.63538 10.0968 6.75356 9.97852 6.82001C9.89766 6.86455 9.7841 6.81534 9.68204 6.70255C9.3507 6.3315 9.02007 5.96153 8.69124 5.59048C8.66789 5.56498 8.65423 5.53014 8.63626 5.49997C8.55612 5.70076 8.50689 5.87604 8.45693 6.05133C8.40375 6.23668 8.31714 6.28912 8.13026 6.24997C7.84312 6.18926 7.5567 6.12712 7.2692 6.06606C7.12689 6.03517 6.98458 6.00787 6.8322 5.97734C6.84622 6.03158 6.8552 6.07001 6.86598 6.10665C6.98925 6.55959 7.11467 7.01182 7.2365 7.46512C7.28537 7.64687 7.2577 7.69895 7.09347 7.77331C6.94145 7.84227 6.7898 7.91519 6.62916 7.99026C6.65791 8.01612 6.67408 8.03157 6.69205 8.0463C7.07442 8.35736 7.4568 8.66734 7.83989 8.9784C8.2104 9.27941 8.57948 9.58005 8.95035 9.87998C9.08009 9.98451 9.12285 10.1117 9.06931 10.2704C9.03912 10.3638 9.01217 10.4572 8.98413 10.551C8.95035 10.6612 8.91729 10.7722 8.87992 10.8983C9.24755 10.8462 9.59471 10.7977 9.94438 10.7492C10.3544 10.6928 10.7641 10.635 11.1752 10.5833C11.3161 10.565 11.4207 10.6724 11.4149 10.8121C11.384 11.5531 11.3125 12.3897 11.3075 13.0915H11.692C11.687 12.3897 11.6158 11.5535 11.5849 10.8121C11.5785 10.6724 11.6834 10.565 11.8243 10.5833C12.2354 10.635 12.6451 10.6928 13.0551 10.7492C13.4048 10.7977 13.7519 10.8466 14.1196 10.8983C14.0822 10.7722 14.0491 10.6612 14.0154 10.551C13.9873 10.4568 13.9604 10.3638 13.9302 10.2704C13.8766 10.1117 13.9194 9.98451 14.0491 9.87998C14.4204 9.58005 14.7891 9.27941 15.1596 8.9784C15.5427 8.6677 15.9251 8.35736 16.3075 8.0463C16.3254 8.03157 16.3416 8.01612 16.3703 7.99026C16.2093 7.91483 16.0584 7.84227 15.906 7.77331Z" fill="#EC1C24"/>
</g>
</svg>
