<svg width="344" height="276" viewBox="0 0 344 276" fill="none" xmlns="http://www.w3.org/2000/svg">
<g opacity="0.4">
<path d="M168.406 223.309C232.358 223.309 284.201 173.561 284.201 112.193C284.201 50.8256 232.358 1.07749 168.406 1.07749C104.455 1.07749 52.6122 50.8256 52.6122 112.193C52.6122 173.561 104.455 223.309 168.406 223.309Z" stroke="white" stroke-width="1.80269" stroke-miterlimit="10"/>
<mask id="mask0_161_1138" style="mask-type:luminance" maskUnits="userSpaceOnUse" x="52" y="1" width="233" height="223">
<path d="M168.406 223.309C232.358 223.309 284.201 173.561 284.201 112.193C284.201 50.8256 232.358 1.07749 168.406 1.07749C104.455 1.07749 52.6122 50.8256 52.6122 112.193C52.6122 173.561 104.455 223.309 168.406 223.309Z" fill="white"/>
</mask>
<g mask="url(#mask0_161_1138)">
<path d="M300.659 103.451C296.95 97.2978 293.24 91.1446 289.529 84.9913C289.268 84.5584 288.559 84.7289 288.193 84.8561C286.266 85.5279 284.34 86.1996 282.413 86.8714C283.091 84.1208 283.768 81.3702 284.445 78.6196C284.871 76.8912 285.297 75.1627 285.722 73.4335C285.834 72.9793 286.143 72.3092 286.01 71.8268C284.289 65.5494 282.569 59.2712 280.849 52.9938C279.823 49.2493 278.797 45.5057 277.771 41.7612C277.544 40.9339 277.169 37.7693 276.391 37.3655C272.376 35.2788 268.362 33.1928 264.347 31.1061C255.197 26.3513 246.048 21.5965 236.899 16.8409C236.717 16.7467 236.367 16.7867 236.002 16.8991C235.423 17.0075 234.814 17.2785 234.701 17.6502C233.691 20.9554 232.68 24.2599 231.669 27.5652C229.108 28.8112 226.546 30.0581 223.985 31.3041C222.534 30.5687 220.509 29.7477 219.801 28.5724C218.93 27.1268 218.058 25.6812 217.186 24.2348C219.073 24.9544 220.959 25.6741 222.845 26.3938C223.477 26.635 224.541 26.4079 224.949 25.7448C227.463 21.6547 229.978 17.5653 232.492 13.4752C232.744 13.0643 232.44 12.8624 232.122 12.7618C223.449 10.0269 214.775 7.29205 206.102 4.55718C205.554 4.01193 203.428 4.85102 203.906 5.70895C206.702 10.7332 209.499 15.7575 212.295 20.7818C212.686 21.485 212.956 21.9493 213.243 22.2942C211.945 23.1074 210.856 23.7563 210.007 25.2396C208.865 27.2344 207.722 29.2292 206.578 31.224C203.23 32.635 199.881 34.0461 196.533 35.4571C196.264 35.5702 195.556 35.9112 195.828 36.3473C196.913 38.0922 197.999 39.8364 199.084 41.5805C199.284 41.9019 199.483 42.2224 199.683 42.5437C199.633 42.5854 199.555 42.6663 199.422 42.8274C199.002 43.3357 198.582 43.844 198.162 44.3523C195.428 44.2211 192.693 44.0907 189.958 43.9595C189.374 43.932 188.268 44.1119 187.975 44.8127C186.332 48.7371 184.689 52.6622 183.047 56.5866C182.965 56.783 183.139 56.8844 183.262 56.9417C185.931 58.2113 188.601 59.4802 191.271 60.7498C191.555 60.8849 191.826 61.0318 192.096 61.1646C190.339 62.5804 188.583 63.9953 186.826 65.4111C185.269 66.6658 184.027 69.4431 182.875 71.1378C180.591 74.498 178.307 77.8583 176.023 81.2186C175.284 82.3067 173.209 84.3557 173.351 85.8916C173.684 89.5159 174.018 93.1409 174.352 96.7651C174.578 99.2133 174.535 100.477 175.807 102.366C177.938 105.533 180.069 108.7 182.199 111.866C183.22 113.383 183.801 115.032 185.582 114.966C192.03 114.723 198.477 114.481 204.926 114.238C206.069 114.195 207.211 114.153 208.354 114.109C208.458 114.105 208.561 114.101 208.664 114.098C208.84 114.265 209.016 114.433 209.192 114.601C210.215 115.578 211.239 116.554 212.262 117.531C212.299 117.595 212.372 117.727 212.439 117.932C212.646 118.566 212.853 119.2 213.061 119.835C214.32 123.687 215.58 127.539 216.841 131.391C217.311 132.828 217.781 134.266 218.252 135.704C218.337 135.966 218.423 136.226 218.508 136.488C218.497 136.592 218.469 136.754 218.398 137.007C217.377 140.612 216.357 144.217 215.336 147.823C214.802 149.711 215.047 150.349 215.607 152.244C218.056 160.524 220.504 168.805 222.953 177.086C223.192 177.895 224.169 177.827 224.71 177.532C229.932 174.683 235.155 171.834 240.378 168.985C241.539 168.352 244.219 167.573 244.906 166.151C246.134 163.607 247.362 161.063 248.591 158.519C249.748 156.121 251.035 153.766 252.196 151.35L251.262 169.31L254.757 169.477L263.289 146.488L263.708 138.433L254.222 146.545C254.632 145.373 254.983 144.176 255.241 142.938C255.977 139.422 256.712 135.906 257.447 132.39C257.449 132.379 257.449 132.376 257.451 132.366C257.465 132.35 257.483 132.322 257.512 132.266C257.658 131.985 257.803 131.705 257.949 131.424C258.598 130.176 259.245 128.928 259.892 127.682C263.116 121.474 266.339 115.266 269.563 109.058C270.181 109.19 270.8 109.322 271.419 109.454C272.093 109.597 273.536 108.804 272.957 107.822C272.403 106.883 271.849 105.944 271.295 105.005C280.507 104.821 289.72 104.637 298.932 104.454C299.119 104.454 300.973 103.971 300.659 103.451ZM249.365 72.7224C244.613 70.5171 239.86 68.311 235.109 66.1056C234.469 65.8086 233.56 66.1944 233.241 66.8889C232.448 68.615 231.655 70.3403 230.863 72.0664C228.857 70.448 226.85 68.8295 224.843 67.2118C223.464 66.1001 222.085 64.9884 220.706 63.8759C220.598 63.7887 220.489 63.7007 220.381 63.6135C220.375 63.5813 220.368 63.546 220.358 63.5035C220.151 62.6495 219.944 61.7947 219.737 60.9407C219.601 60.3782 219.05 60.3012 218.629 60.2949C211.377 60.192 204.126 60.0891 196.874 59.9861C196.945 59.9453 197.015 59.9029 197.085 59.8644C198.776 58.9216 200.466 57.9788 202.156 57.036C202.666 56.7516 203.872 56.3588 204.072 55.6462C204.844 52.905 205.617 50.1631 206.388 47.4219C208.007 47.5971 209.625 47.7723 211.244 47.9475C212.63 48.0976 214.171 47.3834 215.57 46.7667C218.164 49.1582 220.756 51.5497 223.349 53.9421C224.709 55.1968 224.596 54.668 224.285 56.5811C223.956 58.6073 223.626 60.6327 223.296 62.659C223.149 63.5695 225.188 62.7367 225.448 62.5277C227.357 60.9981 229.267 59.4684 231.177 57.9387C231.515 57.6677 231.719 57.2245 231.88 56.7539C231.929 57.0548 231.98 57.3558 232.029 57.6567C232.22 58.8092 232.082 60.2344 233.072 60.7482C236.169 62.3573 239.268 63.9655 242.367 65.5745C242.868 65.8346 244.371 65.4425 244.565 64.7653C244.792 63.9718 245.093 63.1272 245.396 62.2606C245.348 62.7438 245.3 63.2278 245.252 63.7102C245.215 63.8186 245.236 63.9089 245.315 63.982C247.033 64.9633 248.751 65.9446 250.469 66.9259C251.116 67.2951 251.762 67.6636 252.408 68.0336C252.262 67.9504 252.048 69.7998 251.945 70.4307C251.779 71.4489 251.613 72.4679 251.448 73.4861C250.648 73.1742 249.823 72.9354 249.365 72.7224ZM248.138 53.7889C247.91 53.7488 247.33 53.8172 246.854 54.0018C246.949 52.1861 247.043 50.3713 247.138 48.5556C249.577 48.25 252.016 47.9436 254.455 47.638C255.724 50.2856 256.993 52.9333 258.261 55.581C254.887 54.9839 251.513 54.386 248.138 53.7889ZM209.049 114.087C209.08 114.086 209.11 114.084 209.14 114.083C209.344 114.075 209.239 114.097 209.049 114.087ZM218.512 136.443C218.5 136.339 218.52 136.325 218.512 136.443V136.443Z" fill="white" stroke="white" stroke-width="2.15235" stroke-miterlimit="10"/>
<path d="M187.335 30.6528C188.001 32.2689 189.695 32.9681 190.983 33.8842C191.562 34.2959 193.111 33.9706 193.162 32.9917C193.243 31.4282 193.324 29.864 193.406 28.3005C193.657 30.0895 193.909 31.8776 194.16 33.6666C194.246 34.2794 195.578 33.8308 195.825 33.7208C198.623 32.4747 201.421 31.2279 204.219 29.9818C204.351 29.9229 205.178 29.5026 204.99 29.1758C203.157 25.9978 201.323 22.8206 199.489 19.6426C198.996 18.7878 198.48 17.3618 197.787 16.6924C196.85 15.7897 195.165 15.3639 193.993 14.8273C193.558 14.3598 191.53 14.9577 191.64 15.7387C191.909 17.658 192.18 19.5774 192.449 21.496C192.395 21.5046 192.34 21.514 192.293 21.525C190.108 22.042 187.924 22.5582 185.739 23.0743C185.519 23.1262 185.344 23.2087 185.203 23.3069C184.807 23.5473 184.558 23.9142 184.72 24.3102C185.593 26.4252 186.464 28.5386 187.335 30.6528Z" fill="white" stroke="white" stroke-width="2.15235" stroke-miterlimit="10"/>
<path d="M151.3 1.90557C144.644 2.26383 137.988 2.62287 131.333 2.98192C130.613 2.769 128.926 3.50753 129.319 4.19027C130.986 7.08777 132.653 9.98528 134.32 12.8828C134.823 13.7572 136.362 14.1736 137.144 14.5971C138.541 15.3529 139.937 16.1087 141.334 16.8645C141.877 17.1583 143.091 16.7742 143.437 16.2155C146.264 11.6579 149.09 7.09955 151.917 2.54195C152.234 2.02734 151.645 1.88671 151.3 1.90557Z" fill="white" stroke="white" stroke-width="2.15235" stroke-miterlimit="10"/>
<path d="M139.867 122.356C138.797 120.912 137.487 120.986 135.883 120.645C130.19 119.432 124.495 118.219 118.802 117.006C119.447 117.144 118.88 116.855 118.505 116.378C117.977 115.703 117.448 115.029 116.919 114.354C115.808 112.936 114.697 111.519 113.586 110.101C112.499 108.714 110.954 107.789 109.624 106.745C104.925 103.056 100.226 99.3672 95.5281 95.6786C95.0465 95.3007 94.2404 95.6495 93.7996 95.9261C91.0113 97.6749 88.2222 99.4246 85.4332 101.173C84.9295 100.22 84.3686 99.1771 83.4179 99.1315C82.1986 99.0734 80.9793 99.0145 79.7591 98.9563C80.3154 96.018 80.8708 93.0804 81.4263 90.142C81.519 89.6502 80.9824 89.4899 80.6713 89.475C78.9939 89.3949 77.3157 89.314 75.6383 89.2338C76.3635 87.3435 77.0887 85.4532 77.8138 83.5629C77.9804 83.1277 77.8233 82.8284 77.4139 82.7207C75.7279 82.2752 73.5862 81.1203 71.9465 82.1299C70.5991 82.9595 69.2517 83.7892 67.9035 84.6189C67.9719 83.3092 68.0395 82.0003 68.1078 80.6906C68.1699 79.4932 68.2327 78.2967 68.2948 77.0993C68.3089 76.8322 68.2893 76.6711 68.2547 76.5777C68.2956 76.5509 68.3427 76.5172 68.3962 76.4747C69.2934 75.7668 70.1914 75.059 71.0894 74.3511C71.4987 74.0282 71.908 73.7053 72.3166 73.3832C72.3708 73.3407 72.4117 73.3125 72.4564 73.281C73.7661 73.1357 75.0758 72.9903 76.3855 72.8442C77.5019 74.432 78.6184 76.0198 79.7348 77.6076C80.4419 78.6125 83.7118 78.0775 84.7316 78.127C85.1786 78.1482 86.6423 77.764 86.4152 76.9194C86.1135 75.8006 85.8126 74.6819 85.5109 73.5631C85.3035 72.7939 85.0961 72.0248 84.8887 71.2556C84.7198 70.6287 84.8251 70.1918 84.5477 70.6027C86.0389 68.3927 87.5301 66.1826 89.0213 63.9733C91.2675 60.6453 93.5757 57.3722 95.862 54.0811C99.795 52.7966 103.727 51.512 107.66 50.2275C108.544 49.9391 110.595 49.6838 111.152 48.6734C112.256 46.6708 113.36 44.6674 114.464 42.6647C114.702 42.2326 114.411 41.9411 114.064 41.8225C111.808 41.0533 109.55 40.2842 107.294 39.515C108.183 39.1403 109.072 38.7663 109.961 38.3915C111.401 37.785 113.132 37.3576 114.455 36.4415C117.432 34.3807 120.409 32.3207 123.386 30.26C123.647 30.0793 124.048 29.6094 123.75 29.2473C120.909 25.7982 118.068 22.3492 115.226 18.9001C114.785 18.3651 113.784 18.6487 113.333 19.0078C112.069 20.0134 110.804 21.0191 109.54 22.0247C108.825 19.4234 108.109 16.8221 107.393 14.2215C107.395 14.1171 107.349 14.0173 107.251 13.9254C107.175 13.8334 107.073 13.7674 106.952 13.725C102.681 11.2038 98.4099 8.68344 94.139 6.16227C93.4704 5.76787 92.4774 6.17484 92.0358 6.81122C78.2349 26.7041 64.4333 46.5969 50.6324 66.4898C50.4376 66.7703 50.2427 67.0515 50.0479 67.332C49.9685 67.4617 49.9418 67.6039 49.9685 67.7586C52.1055 73.8821 54.2417 80.0047 56.3787 86.1281C57.1683 88.3892 59.7068 89.0225 61.5162 90.0627C63.3711 91.1296 64.5614 92.3309 66.4084 94.1057C70.7578 98.2854 75.1662 102.317 79.1754 106.925C79.701 107.529 80.2258 108.133 80.7514 108.737C80.8936 108.9 80.9785 108.966 81.0303 108.992C81.0091 109.014 80.9863 109.051 80.9651 109.135C80.4835 111.038 80.0019 112.943 79.5203 114.846C79.3302 115.597 78.7338 116.884 78.9004 117.691C79.1832 119.065 79.4669 120.44 79.7497 121.815C80.4796 125.358 81.2095 128.901 81.9386 132.444C82.0658 133.062 82.6378 133.53 82.9984 133.972C84.2547 135.506 85.5109 137.04 86.7672 138.575C87.8436 139.89 90.0536 141.859 90.1345 143.171C90.2759 145.477 90.4181 147.783 90.5596 150.09C91.4159 164.017 92.2723 177.945 93.1287 191.871C93.1562 192.322 93.8177 192.633 94.1037 192.845C95.5564 193.918 97.0083 194.991 98.4609 196.064C101.065 197.989 103.67 199.913 106.274 201.838C106.838 202.255 108.603 201.758 108.455 200.762C107.761 196.079 107.067 191.395 106.373 186.712C106.124 185.037 105.876 183.361 105.627 181.686C105.911 181.367 106.193 181.048 106.477 180.729C107.35 179.746 108.223 178.763 109.096 177.78C111.522 175.046 114.011 172.503 116.014 169.349C118.431 165.543 120.847 161.737 123.263 157.931C127.573 156.821 131.884 155.711 136.195 154.601C136.532 154.514 137.201 154.177 137.242 153.693C137.617 149.234 137.993 144.775 138.368 140.316C138.343 140.612 138.382 140.369 138.517 140.171C138.788 139.775 139.06 139.379 139.331 138.983C140.104 137.855 140.877 136.727 141.65 135.599C142.865 133.825 144.079 132.052 145.295 130.279C145.42 130.097 145.413 129.841 145.285 129.668C143.481 127.23 141.674 124.793 139.867 122.356ZM72.5641 73.2072C72.821 73.0445 72.8312 73.1137 72.5641 73.2072V73.2072ZM105.464 181.88C105.388 181.977 105.414 181.961 105.464 181.88V181.88Z" fill="white" stroke="white" stroke-width="2.15235" stroke-miterlimit="10"/>
</g>
<mask id="mask1_161_1138" style="mask-type:luminance" maskUnits="userSpaceOnUse" x="52" y="1" width="233" height="223">
<path d="M168.406 223.309C232.358 223.309 284.201 173.561 284.201 112.193C284.201 50.8256 232.358 1.07749 168.406 1.07749C104.455 1.07749 52.6122 50.8256 52.6122 112.193C52.6122 173.561 104.455 223.309 168.406 223.309Z" fill="white"/>
</mask>
<g mask="url(#mask1_161_1138)">
<path d="M115.427 217.129L133.995 201.122L151.585 208.525L162.115 212.002L175.689 218.01L193.04 210.94L211.996 210.887L219.172 203.674L237.634 215.141L205.793 242.212C205.793 242.212 143.754 236.545 142.567 235.458C141.38 234.37 115.427 217.129 115.427 217.129Z" fill="white" stroke="white" stroke-width="2.15235" stroke-miterlimit="10"/>
</g>
<path d="M168.406 223.309C232.358 223.309 284.201 173.561 284.201 112.193C284.201 50.8256 232.358 1.07749 168.406 1.07749C104.455 1.07749 52.6122 50.8256 52.6122 112.193C52.6122 173.561 104.455 223.309 168.406 223.309Z" stroke="white" stroke-width="2.15235" stroke-miterlimit="10"/>
</g>
<path opacity="0.2" d="M168.337 275.413C232.121 275.413 283.828 267.498 283.828 257.735C283.828 247.973 232.121 240.058 168.337 240.058C104.552 240.058 52.8449 247.973 52.8449 257.735C52.8449 267.498 104.552 275.413 168.337 275.413Z" fill="#22689E"/>
<path d="M224.259 210.155C224.259 210.155 224.645 170.469 241.984 170.469C259.322 170.469 261.249 184.339 269.34 159.68C273.276 147.688 284.367 172.395 289.376 160.065C294.385 147.735 298.623 124.616 311.724 135.405C324.825 146.194 320.201 114.599 338.311 119.607C358.577 125.213 316.813 150.542 334.458 148.505C344.476 147.35 346.955 157.104 337.54 161.991C326.721 167.606 303.384 174.306 310.183 180.486C322.898 192.046 324.825 197.825 296.698 200.908C268.57 203.99 330.605 220.944 269.341 232.889C208.077 244.833 198.829 226.339 198.829 226.339L204.223 212.468L224.259 210.155Z" fill="#229E6A"/>
<path d="M331.376 128.47C331.376 128.47 292.845 201.679 211.159 219.402" stroke="#003314" stroke-width="0.76971" stroke-miterlimit="10"/>
<path d="M332.916 155.056C332.916 155.056 320.972 161.221 307.871 160.836L304.789 139.259" stroke="#003314" stroke-width="0.76971" stroke-miterlimit="10"/>
<path d="M302.477 191.661L277.431 189.349L273.964 167.386" stroke="#003314" stroke-width="0.76971" stroke-miterlimit="10"/>
<path d="M283.982 213.623L249.689 205.917V181.643" stroke="#003314" stroke-width="0.76971" stroke-miterlimit="10"/>
<path d="M139.015 187.807C139.015 187.807 138.63 148.12 121.291 148.12C103.951 148.12 102.026 161.992 93.9341 137.332C89.9987 125.34 78.9068 150.047 73.8982 137.718C68.8889 125.387 64.651 102.269 51.5502 113.057C38.4493 123.846 43.0729 92.2507 24.9635 97.2593C4.69747 102.865 46.4615 128.194 28.8164 126.157C18.7985 125.002 16.3189 134.756 25.7342 139.643C36.5528 145.258 59.8899 151.958 53.0909 158.138C40.3758 169.698 38.4493 175.477 66.5767 178.56C94.704 181.642 32.6693 198.596 93.9341 210.541C155.198 222.485 164.446 203.991 164.446 203.991L159.052 190.12L139.015 187.807Z" fill="#229E6A"/>
<path d="M31.8993 106.122C31.8993 106.122 70.4304 179.331 152.116 197.054" stroke="#003314" stroke-width="0.76971" stroke-miterlimit="10"/>
<path d="M30.3579 132.708C30.3579 132.708 42.3023 138.873 55.4031 138.487L58.4852 116.91" stroke="#003314" stroke-width="0.76971" stroke-miterlimit="10"/>
<path d="M60.7974 169.313L85.8427 167.001L89.3105 145.038" stroke="#003314" stroke-width="0.76971" stroke-miterlimit="10"/>
<path d="M79.2927 191.275L113.585 183.569V159.295" stroke="#003314" stroke-width="0.76971" stroke-miterlimit="10"/>
<path d="M303.069 237.82C303.069 237.82 264.046 259.658 243.509 225.268" stroke="#003314" stroke-width="0.682138" stroke-miterlimit="10" stroke-linecap="round" stroke-linejoin="round"/>
<path d="M295.673 240.786C295.673 240.786 306.845 242.329 309.181 232.704C309.181 232.704 299.969 231.3 295.673 240.786Z" fill="#003314"/>
<path d="M298.761 247.304C298.761 247.304 293.715 239.79 286.702 243.533C286.702 243.533 290.786 249.799 298.761 247.304Z" fill="#003314"/>
<path d="M257.071 248.382C257.071 248.382 259.859 239.771 252.581 236.573C252.581 236.573 250.179 243.656 257.071 248.382Z" fill="#003314"/>
<path d="M271.718 252.92C271.718 252.92 273.235 245.098 266.534 243.08C266.534 243.08 265.191 249.525 271.718 252.92Z" fill="#003314"/>
<path d="M287.343 237.87C287.343 237.87 281.134 235.778 277.744 244.632C277.744 244.632 284.693 245.796 287.343 237.87Z" fill="#003314"/>
<path d="M271.486 236.978C271.486 236.978 266.191 233.12 260.301 240.549C260.301 240.549 266.581 243.744 271.486 236.978Z" fill="#003314"/>
<path d="M117.064 134.808C117.064 134.808 113.8 179.408 153.65 183.455" stroke="#003314" stroke-width="0.682138" stroke-miterlimit="10" stroke-linecap="round" stroke-linejoin="round"/>
<path d="M117.507 142.765C117.507 142.765 111.38 133.296 119.111 127.104C119.111 127.104 124.282 134.858 117.507 142.765Z" fill="#003314"/>
<path d="M110.294 142.727C110.294 142.727 119.238 144.117 118.816 152.054C118.816 152.054 111.41 151.009 110.294 142.727Z" fill="#003314"/>
<path d="M126.968 180.953C126.968 180.953 133.589 174.782 139.567 180.021C139.567 180.021 134.167 185.196 126.968 180.953Z" fill="#003314"/>
<path d="M116.656 169.604C116.656 169.604 123.101 164.919 127.765 170.135C127.765 170.135 122.494 174.08 116.656 169.604Z" fill="#003314"/>
<path d="M123.676 149.077C123.676 149.077 128.2 153.817 121.613 160.636C121.613 160.636 117.618 154.834 123.676 149.077Z" fill="#003314"/>
<path d="M131.196 163.065C131.196 163.065 136.934 166.229 132.696 174.71C132.696 174.71 127.145 170.373 131.196 163.065Z" fill="#003314"/>
<path d="M265.705 125.716C265.705 125.716 243.429 195.436 173.473 200.129" stroke="#FF8255" stroke-width="0.76971" stroke-miterlimit="10"/>
<path d="M260.746 137.73C260.746 137.73 256.662 129.102 268.043 120.266C268.043 120.266 271.728 130.926 260.746 137.73Z" fill="#FF8255"/>
<path d="M256.449 146.357C256.449 146.357 258.717 139.506 269.554 140.61C269.554 140.61 266.007 148.366 256.449 146.357Z" fill="#FF8255"/>
<path d="M256.346 146.24C256.346 146.24 249.635 143.586 251.354 132.829C251.354 132.829 258.895 136.812 256.346 146.24Z" fill="#FF8255"/>
<path d="M250.492 155.33C250.492 155.33 253.19 149.421 262.778 151.467C262.778 151.467 258.847 158.06 250.492 155.33Z" fill="#FF8255"/>
<path d="M250.411 155.214C250.411 155.214 244.665 152.184 247.254 142.728C247.254 142.728 253.611 147.028 250.411 155.214Z" fill="#FF8255"/>
<path d="M244.911 162.952C244.911 162.952 247.703 158.196 255.623 160.757C255.623 160.757 251.731 165.983 244.911 162.952Z" fill="#FF8255"/>
<path d="M244.853 162.848C244.853 162.848 240.263 159.79 243.27 152.027C243.27 152.027 248.267 156.211 244.853 162.848Z" fill="#FF8255"/>
<path d="M237.871 170.828C237.871 170.828 240.847 166.185 248.661 169.054C248.661 169.054 244.567 174.124 237.871 170.828Z" fill="#FF8255"/>
<path d="M237.817 170.721C237.817 170.721 233.351 167.486 236.66 159.848C236.66 159.848 241.489 164.224 237.817 170.721Z" fill="#FF8255"/>
<path d="M230.358 177.621C230.358 177.621 233.828 173.334 241.278 177.048C241.278 177.048 236.65 181.636 230.358 177.621Z" fill="#FF8255"/>
<path d="M230.316 177.51C230.316 177.51 226.234 173.801 230.366 166.575C230.366 166.575 234.682 171.456 230.316 177.51Z" fill="#FF8255"/>
<path d="M221.72 183.982C221.72 183.982 225.248 180.637 231.328 184.742C231.328 184.742 226.755 188.216 221.72 183.982Z" fill="#FF8255"/>
<path d="M221.696 183.879C221.696 183.879 218.558 180.167 223.003 174.33C223.003 174.33 226.211 179.094 221.696 183.879Z" fill="#FF8255"/>
<path d="M213.916 188.999C213.916 188.999 217.366 186.292 222.481 190.491C222.481 190.491 218.08 193.226 213.916 188.999Z" fill="#FF8255"/>
<path d="M213.903 188.905C213.903 188.905 211.396 185.307 215.88 180.439C215.88 180.439 218.36 184.988 213.903 188.905Z" fill="#FF8255"/>
<path d="M204.954 193.151C204.954 193.151 208.743 190.944 213.233 195.808C213.233 195.808 208.498 197.911 204.954 193.151Z" fill="#FF8255"/>
<path d="M204.955 193.056C204.955 193.056 202.967 189.147 208.078 184.943C208.078 184.943 209.908 189.789 204.955 193.056Z" fill="#FF8255"/>
<path d="M4.54608 203.737C4.54608 203.737 55.8928 255.897 120.435 228.51" stroke="#FF8255" stroke-width="0.76971" stroke-miterlimit="10"/>
<path d="M14.3933 212.219C14.3933 212.219 14.1434 202.676 0 199.929C0 199.929 1.52418 211.104 14.3933 212.219Z" fill="#FF8255"/>
<path d="M22.1218 217.979C22.1218 217.979 17.0056 212.888 7.83379 218.765C7.83379 218.765 14.4993 224.084 22.1218 217.979Z" fill="#FF8255"/>
<path d="M22.1613 217.827C22.1613 217.827 26.9522 212.43 20.5625 203.607C20.5625 203.607 15.6309 210.564 22.1613 217.827Z" fill="#FF8255"/>
<path d="M31.4882 223.295C31.4882 223.295 26.4136 219.241 18.7817 225.395C18.7817 225.395 25.2642 229.503 31.4882 223.295Z" fill="#FF8255"/>
<path d="M31.5079 223.156C31.5079 223.156 35.2672 217.859 28.6889 210.59C28.6889 210.59 24.9571 217.296 31.5079 223.156Z" fill="#FF8255"/>
<path d="M39.9084 227.579C39.9084 227.579 35.2707 224.595 29.3586 230.455C29.3586 230.455 35.1906 233.361 39.9084 227.579Z" fill="#FF8255"/>
<path d="M39.9132 227.459C39.9132 227.459 42.6284 222.658 36.4414 217.089C36.4414 217.089 33.8715 223.078 39.9132 227.459Z" fill="#FF8255"/>
<path d="M49.7445 231.429C49.7445 231.429 44.9928 228.629 39.3156 234.716C39.3156 234.716 45.2568 237.392 49.7445 231.429Z" fill="#FF8255"/>
<path d="M49.7446 231.31C49.7446 231.31 52.2697 226.407 45.8698 221.084C45.8698 221.084 43.5356 227.169 49.7446 231.31Z" fill="#FF8255"/>
<path d="M59.5152 234.1C59.5152 234.1 54.4838 231.841 49.5122 238.517C49.5122 238.517 55.7126 240.522 59.5152 234.1Z" fill="#FF8255"/>
<path d="M59.5017 233.981C59.5017 233.981 61.4706 228.829 54.5222 224.246C54.5222 224.246 52.8739 230.55 59.5017 233.981Z" fill="#FF8255"/>
<path d="M70.0942 235.877C70.0942 235.877 65.4369 234.485 61.8637 240.892C61.8637 240.892 67.5134 241.928 70.0942 235.877Z" fill="#FF8255"/>
<path d="M70.0691 235.774C70.0691 235.774 71.1942 231.045 64.5931 227.843C64.5931 227.843 63.8813 233.542 70.0691 235.774Z" fill="#FF8255"/>
<path d="M79.3231 236.831C79.3231 236.831 75.0232 235.973 72.3536 242.029C72.3536 242.029 77.5153 242.483 79.3231 236.831Z" fill="#FF8255"/>
<path d="M79.2926 236.742C79.2926 236.742 79.9046 232.4 73.7073 230.079C73.7073 230.079 73.5471 235.258 79.2926 236.742Z" fill="#FF8255"/>
<path d="M89.1939 236.492C89.1939 236.492 84.817 236.234 83.0053 242.599C83.0053 242.599 88.1804 242.338 89.1939 236.492Z" fill="#FF8255"/>
<path d="M89.1508 236.407C89.1508 236.407 89.1603 232.022 82.7021 230.577C82.7021 230.577 83.256 235.728 89.1508 236.407Z" fill="#FF8255"/>
<path d="M29.8509 182.253C29.8509 182.253 59.6297 230.207 112.834 220.555" stroke="#FF8255" stroke-width="0.593624" stroke-miterlimit="10"/>
<path d="M35.8196 190.305C35.8196 190.305 37.2511 183.083 27.0768 178.616C27.0768 178.616 26.3273 187.282 35.8196 190.305Z" fill="#FF8255"/>
<path d="M40.6571 195.95C40.6571 195.95 37.6716 191.252 29.7742 194.117C29.7742 194.117 33.8863 199.25 40.6571 195.95Z" fill="#FF8255"/>
<path d="M40.7121 195.842C40.7121 195.842 45.232 192.594 41.9228 184.873C41.9228 184.873 37.0321 189.27 40.7121 195.842Z" fill="#FF8255"/>
<path d="M46.8017 201.539C46.8017 201.539 43.6716 197.627 36.8859 200.962C36.8859 200.962 41.0656 205.153 46.8017 201.539Z" fill="#FF8255"/>
<path d="M46.8403 201.438C46.8403 201.438 50.5675 198.091 46.8521 191.505C46.8521 191.505 42.9057 195.917 46.8403 201.438Z" fill="#FF8255"/>
<path d="M52.409 206.19C52.409 206.19 49.4259 203.158 43.9844 206.563C43.9844 206.563 47.8789 209.74 52.409 206.19Z" fill="#FF8255"/>
<path d="M52.4333 206.101C52.4333 206.101 55.2907 202.951 51.5808 197.711C51.5808 197.711 48.6307 201.78 52.4333 206.101Z" fill="#FF8255"/>
<path d="M59.1561 210.756C59.1561 210.756 56.0567 207.844 50.752 211.459C50.752 211.459 54.7675 214.481 59.1561 210.756Z" fill="#FF8255"/>
<path d="M59.1766 210.667C59.1766 210.667 61.9084 207.407 57.9966 202.317C57.9966 202.317 55.2083 206.497 59.1766 210.667Z" fill="#FF8255"/>
<path d="M66.0535 214.424C66.0535 214.424 62.6516 211.87 57.7781 216.05C57.7781 216.05 62.1032 218.61 66.0535 214.424Z" fill="#FF8255"/>
<path d="M66.0639 214.332C66.0639 214.332 68.4193 210.79 63.9693 206.162C63.9693 206.162 61.6602 210.626 66.0639 214.332Z" fill="#FF8255"/>
<path d="M73.711 217.555C73.711 217.555 70.4435 215.718 66.6684 219.932C66.6684 219.932 70.742 221.67 73.711 217.555Z" fill="#FF8255"/>
<path d="M73.7093 217.474C73.7093 217.474 75.3584 214.107 70.9352 210.577C70.9352 210.577 69.4322 214.745 73.7093 217.474Z" fill="#FF8255"/>
<path d="M80.4922 219.84C80.4922 219.84 77.403 218.464 74.3673 222.568C74.3673 222.568 78.173 223.785 80.4922 219.84Z" fill="#FF8255"/>
<path d="M80.4837 219.767C80.4837 219.767 81.681 216.605 77.4118 213.807C77.4118 213.807 76.4132 217.676 80.4837 219.767Z" fill="#FF8255"/>
<path d="M87.9755 221.259C87.9755 221.259 84.7268 220.322 82.2842 224.803C82.2842 224.803 86.2211 225.486 87.9755 221.259Z" fill="#FF8255"/>
<path d="M87.9575 221.188C87.9575 221.188 88.7086 217.891 84.0952 215.707C84.0952 215.707 83.638 219.677 87.9575 221.188Z" fill="#FF8255"/>
<path d="M186.096 98.5352C174.52 101.912 179.343 80.6882 179.343 80.6882L169.981 77.5676L169.955 77.3115L169.585 77.4348L169.214 77.3115L169.187 77.5676L159.825 80.6882C159.825 80.6882 164.648 101.911 153.073 98.5352C141.496 95.1585 161.272 123.135 161.272 123.135H164.391H174.779H177.897C177.897 123.135 197.673 95.1585 186.096 98.5352Z" fill="#FFB199"/>
<path opacity="0.5" d="M160.581 92.9594C166.088 96.0942 172.989 97.0833 179.722 96.5137C176.871 91.5767 179.344 80.6882 179.344 80.6882L169.982 77.5676L169.955 77.3115L169.585 77.4348L169.215 77.3115L169.189 77.5676L159.827 80.6882C159.827 80.6882 161.403 87.6452 160.581 92.9594Z" fill="#FF8255"/>
<path d="M163.777 32.7418C163.777 32.7418 151.293 27.1244 153.79 18.3855C156.286 9.64665 171.578 9.95934 171.891 18.6974C172.203 27.4363 162.528 20.8823 162.528 20.8823C162.528 20.8823 159.408 8.08633 171.891 11.2077C184.375 14.3292 177.197 33.9903 163.777 32.7418Z" fill="#003154"/>
<path d="M163.481 32.734C161.031 31.6419 158.72 30.2159 156.653 28.4749C154.616 26.7276 152.755 24.6009 151.858 21.954C151.408 20.6427 151.255 19.2191 151.419 17.8316C151.583 16.4371 152.005 15.1062 152.735 13.8782C153.453 12.6691 154.443 11.6226 155.597 10.8251C156.746 10.0206 158.035 9.43373 159.376 9.05111C162.057 8.27803 164.975 8.33538 167.638 9.28996C168.969 9.76371 170.218 10.5407 171.227 11.5841C172.251 12.6172 172.918 13.9984 173.197 15.4189C173.343 16.1126 173.367 16.8943 173.361 17.5378C173.327 18.2614 173.272 18.996 173.036 19.7133C172.814 20.4282 172.424 21.1636 171.783 21.6963C171.148 22.2352 170.331 22.4977 169.572 22.5581C168.035 22.6626 166.653 22.229 165.358 21.7261C164.057 21.206 162.863 20.5508 161.683 19.7816L161.462 19.6378L161.408 19.3864C161.137 18.1231 161.013 16.903 161.011 15.6389C161.015 14.3849 161.147 13.1075 161.55 11.8708C161.934 10.6413 162.649 9.43687 163.701 8.58915C164.75 7.73435 166.054 7.26924 167.33 7.12703C168.611 6.96912 169.882 7.05868 171.106 7.27238C171.74 7.3588 172.293 7.51437 172.956 7.66286C173.536 7.85692 174.097 7.97633 174.704 8.2686C175.317 8.50351 175.863 8.83506 176.409 9.16347C176.923 9.54608 177.446 9.92163 177.882 10.3977C178.781 11.3138 179.477 12.4247 179.918 13.6205C180.358 14.8194 180.532 16.089 180.533 17.339C180.529 18.5906 180.357 19.8374 180.009 21.0277C179.664 22.2172 179.218 23.3776 178.616 24.4555C178.013 25.5287 177.342 26.5705 176.516 27.4842C175.695 28.3964 174.815 29.2637 173.811 29.9693C172.817 30.6842 171.758 31.3167 170.62 31.7629C170.067 32.023 169.469 32.1683 168.894 32.3639C168.296 32.481 167.712 32.6656 167.103 32.7096C165.901 32.899 164.68 32.833 163.481 32.734ZM163.481 32.734C164.686 32.7686 165.897 32.7678 167.074 32.5156C167.669 32.4402 168.239 32.2398 168.818 32.1007C169.376 31.8847 169.952 31.7213 170.483 31.4447C171.576 30.9655 172.58 30.3079 173.514 29.578C174.459 28.8568 175.274 27.9823 176.029 27.0741C176.781 26.1588 177.41 25.15 177.96 24.1082C178.51 23.0633 178.906 21.9461 179.206 20.8132C179.508 19.6795 179.637 18.5057 179.613 17.3477C179.583 16.1912 179.394 15.0378 178.974 13.9764C178.55 12.9181 177.914 11.9588 177.106 11.1748C176.311 10.3859 175.312 9.76213 174.282 9.35202C173.803 9.11004 173.174 8.97098 172.61 8.7887C172.094 8.68421 171.481 8.51608 170.916 8.4493C169.766 8.25602 168.6 8.19082 167.485 8.33852C166.368 8.47209 165.318 8.87434 164.496 9.55551C163.671 10.232 163.094 11.196 162.77 12.2613C162.43 13.3243 162.315 14.4808 162.322 15.6341C162.329 16.782 162.466 17.9754 162.71 19.069L162.435 18.6731C163.502 19.3652 164.685 19.978 165.866 20.4691C167.047 20.9483 168.308 21.3176 169.465 21.239C170.038 21.195 170.553 21.0183 170.948 20.6898C171.346 20.3654 171.626 19.8791 171.805 19.3228C171.997 18.7642 172.048 18.1467 172.086 17.5362C172.096 16.8417 172.08 16.2744 171.96 15.6538C171.73 14.4525 171.197 13.3078 170.335 12.4255C169.487 11.5369 168.411 10.8408 167.22 10.4079C164.841 9.52723 162.144 9.45965 159.659 10.0968C158.416 10.4197 157.22 10.9296 156.154 11.6375C155.084 12.3391 154.168 13.2638 153.491 14.3425C152.82 15.4 152.375 16.6665 152.201 17.9283C152.02 19.1995 152.126 20.5091 152.515 21.745C153.259 24.2442 154.96 26.3977 156.901 28.1945C157.884 29.0901 158.933 29.9198 160.04 30.6693C161.14 31.4282 162.284 32.129 163.481 32.734Z" fill="#003154"/>
<path d="M157.441 32.3962C157.441 32.3962 158.464 25.5759 165.967 25.5759C173.469 25.5759 173.81 32.3962 173.81 32.3962H157.441Z" fill="#FFA94D"/>
<path d="M149.757 61.1465C147.278 55.4505 143.744 57.0736 142.746 57.6833C141.47 58.1995 138.502 60.0411 140.21 65.6632C142.353 72.7177 146.866 74.0698 148.828 72.6619C148.848 72.647 148.866 72.6289 148.884 72.6124C150.823 71.2768 152.318 67.0311 149.757 61.1465Z" fill="#FFB199"/>
<path opacity="0.5" d="M149.757 61.1465C147.278 55.4505 143.744 57.0736 142.746 57.6833C141.47 58.1995 138.502 60.0411 140.21 65.6632C142.353 72.7177 146.866 74.0698 148.828 72.6619C148.848 72.647 148.866 72.6289 148.884 72.6124C150.823 71.2768 152.318 67.0311 149.757 61.1465Z" fill="#FF8255"/>
<path d="M185.676 61.0797C187.029 54.9272 190.789 55.6807 191.879 56.0413C193.223 56.2448 196.471 57.3463 195.857 63.2442C195.087 70.6451 190.929 73.0312 188.748 72.1174C188.725 72.108 188.705 72.0947 188.683 72.0821C186.538 71.2344 184.278 67.4357 185.676 61.0797Z" fill="#FFB199"/>
<path opacity="0.5" d="M185.676 61.0797C187.029 54.9272 190.789 55.6807 191.879 56.0413C193.223 56.2448 196.471 57.3463 195.857 63.2442C195.087 70.6451 190.929 73.0312 188.748 72.1174C188.725 72.108 188.705 72.0947 188.683 72.0821C186.538 71.2344 184.278 67.4357 185.676 61.0797Z" fill="#FF8255"/>
<path d="M189.038 51.1907C184.453 28.8371 168.006 30.9018 163.208 32.012C157.342 32.5148 143.041 35.9167 144.475 57.2308C146.273 83.9754 163.093 93.2682 172.738 90.3581C172.839 90.3282 172.932 90.2834 173.026 90.2418C182.499 87.558 193.774 74.2859 189.038 51.1907Z" fill="#FFB199"/>
<path d="M164.262 28.6446C164.262 28.6446 145.701 30.0329 143.46 47.0589C141.755 60.0175 146.188 67.178 146.188 67.178L146.529 53.1964C146.529 53.1964 150.962 51.1506 150.962 42.2844C150.962 42.2844 164.362 35.3895 183.459 42.209C183.459 42.209 182.766 49.7293 188.133 52.1735C188.133 52.1735 188.109 61.801 190.179 65.1322C190.179 65.1322 199.727 28.6446 164.262 28.6446Z" fill="#003154"/>
<path d="M148.234 56.2676C148.234 56.2676 148.27 55.9502 148.466 55.4395C148.557 55.1779 148.696 54.8778 148.876 54.5376C149.074 54.2139 149.282 53.8187 149.596 53.4557C149.883 53.066 150.265 52.7054 150.685 52.3252C150.895 52.135 151.148 51.9873 151.391 51.8098C151.632 51.6259 151.902 51.4759 152.193 51.3478C152.479 51.2127 152.77 51.0642 153.08 50.9589C153.395 50.867 153.718 50.7774 154.047 50.7004C154.374 50.6022 154.714 50.5904 155.054 50.5661C155.393 50.5559 155.741 50.5032 156.076 50.5354L157.08 50.6635C157.247 50.6863 157.413 50.7075 157.577 50.7381L158.043 50.8866C158.656 51.0948 159.284 51.2645 159.791 51.589C160.309 51.8915 160.831 52.1539 161.251 52.4925C161.668 52.8366 162.049 53.1705 162.39 53.4848C162.745 53.7833 162.998 54.133 163.23 54.4292C163.467 54.7198 163.652 54.9933 163.807 55.2125C164.113 55.654 164.259 55.9266 164.259 55.9266C164.259 55.9266 163.948 55.8378 163.453 55.6477C163.206 55.5511 162.904 55.4419 162.583 55.2926C162.255 55.1512 161.899 54.9768 161.487 54.8463C161.084 54.7002 160.66 54.5352 160.225 54.3506C159.789 54.1683 159.306 54.074 158.841 53.902C158.377 53.7048 157.877 53.6781 157.396 53.5437L157.031 53.4557L156.665 53.4267L155.935 53.3497C155.691 53.3143 155.454 53.3583 155.213 53.3544C154.975 53.3709 154.729 53.33 154.5 53.3921C154.267 53.4337 154.034 53.4636 153.798 53.4879C153.567 53.5304 153.349 53.6136 153.12 53.6608L152.782 53.7433L152.46 53.8674C152.247 53.9491 152.028 54.0159 151.823 54.1055C151.421 54.2995 151.015 54.4669 150.664 54.6798C150.294 54.866 149.976 55.0805 149.67 55.2572C149.394 55.4607 149.111 55.6163 148.909 55.7742C148.7 55.929 148.522 56.0421 148.412 56.1317C148.297 56.2205 148.234 56.2676 148.234 56.2676Z" fill="#003154"/>
<path d="M186.428 56.2676C186.428 56.2676 186.194 56.0759 185.794 55.7805C185.605 55.6241 185.34 55.4678 185.085 55.2643C184.797 55.0891 184.504 54.8683 184.156 54.6813C183.827 54.4692 183.453 54.2877 183.073 54.0984C182.888 53.9923 182.677 53.9365 182.479 53.8501C182.276 53.7723 182.082 53.6741 181.864 53.6333C181.65 53.5822 181.443 53.5123 181.232 53.451C181.012 53.4266 180.794 53.3976 180.577 53.3551C180.363 53.2939 180.136 53.319 179.913 53.3104C179.689 53.3127 179.468 53.2742 179.241 53.3017L178.559 53.3795C178.445 53.3913 178.332 53.4023 178.217 53.4078L177.876 53.4966C177.426 53.6301 176.956 53.6631 176.521 53.8611C176.086 54.0355 175.628 54.1282 175.221 54.3191C174.812 54.5053 174.413 54.6727 174.034 54.822C173.645 54.9555 173.313 55.1354 173.004 55.2776C172.701 55.4285 172.417 55.5408 172.184 55.6398C171.717 55.8339 171.422 55.9266 171.422 55.9266C171.422 55.9266 171.552 55.6618 171.829 55.2297C171.968 55.0152 172.135 54.7473 172.35 54.4629C172.563 54.1738 172.789 53.8281 173.119 53.5327C173.434 53.2224 173.788 52.8916 174.175 52.5514C174.562 52.2104 175.058 51.9504 175.546 51.6463C176.022 51.3219 176.622 51.1443 177.209 50.9353L177.655 50.7845C177.813 50.7538 177.973 50.731 178.133 50.7083L179.102 50.5778C179.427 50.5535 179.763 50.6006 180.091 50.6132C180.421 50.6313 180.747 50.6595 181.062 50.7577C181.378 50.8371 181.689 50.9275 181.991 51.0217C182.282 51.1474 182.562 51.2849 182.833 51.4248C183.111 51.5528 183.355 51.721 183.584 51.897C183.81 52.0769 184.057 52.2159 184.24 52.4178C184.632 52.7903 184.974 53.1572 185.236 53.5366C185.522 53.8925 185.699 54.2806 185.878 54.5949C186.036 54.9272 186.158 55.2179 186.234 55.4701C186.404 55.9643 186.428 56.2676 186.428 56.2676Z" fill="#003154"/>
<path d="M173.128 64.1092C173.128 64.1092 173.497 63.4131 174.379 62.6479C174.605 62.4672 174.841 62.2496 175.131 62.0791C175.408 61.8882 175.716 61.7043 176.057 61.5535C176.388 61.3854 176.761 61.262 177.137 61.1402C177.529 61.0735 177.918 60.9415 178.332 60.9336L178.945 60.9124C179.149 60.921 179.352 60.9517 179.553 60.9713C179.961 60.9855 180.337 61.1394 180.702 61.2494C181.077 61.3359 181.381 61.5637 181.686 61.7201C182 61.867 182.236 62.0956 182.461 62.2873C182.681 62.4845 182.899 62.6416 183.034 62.8428C183.185 63.0266 183.306 63.1955 183.405 63.3314C183.6 63.6064 183.698 63.7675 183.698 63.7675C183.698 63.7675 183.517 63.685 183.224 63.5333C183.078 63.4564 182.902 63.366 182.712 63.2529C182.53 63.128 182.276 63.0667 182.041 62.9472C181.795 62.8443 181.544 62.7115 181.254 62.6408C180.967 62.5686 180.685 62.4381 180.371 62.4028C180.062 62.3447 179.748 62.2857 179.421 62.2802C179.259 62.2724 179.097 62.2519 178.933 62.2512L178.438 62.2904C178.105 62.2755 177.777 62.3808 177.449 62.4161C177.132 62.5183 176.797 62.5481 176.494 62.6668C176.187 62.7689 175.882 62.8577 175.601 62.9755C175.314 63.0785 175.053 63.2042 174.798 63.3016C173.814 63.7486 173.128 64.1092 173.128 64.1092Z" fill="#001433"/>
<path d="M162.216 64.1093C162.216 64.1093 161.53 63.7486 160.543 63.304C160.289 63.2058 160.028 63.08 159.741 62.9779C159.461 62.8608 159.155 62.7713 158.848 62.6692C158.544 62.5505 158.21 62.5207 157.893 62.4185C157.566 62.3832 157.237 62.2779 156.905 62.2928L156.41 62.2535C156.246 62.2543 156.083 62.2747 155.921 62.2826C155.594 62.2881 155.281 62.347 154.971 62.4052C154.656 62.4397 154.376 62.5702 154.088 62.6432C153.798 62.7139 153.548 62.8467 153.302 62.9496C153.066 63.0683 152.812 63.1303 152.63 63.2553C152.441 63.3684 152.264 63.458 152.119 63.5357C151.826 63.6874 151.645 63.7699 151.645 63.7699C151.645 63.7699 151.743 63.608 151.939 63.3338C152.038 63.1979 152.158 63.029 152.309 62.8451C152.445 62.644 152.662 62.4877 152.882 62.2897C153.107 62.098 153.343 61.8686 153.657 61.7224C153.962 61.5661 154.266 61.339 154.641 61.2518C155.006 61.141 155.382 60.9871 155.79 60.9737C155.991 60.9541 156.195 60.9234 156.398 60.9148L157.012 60.936C157.425 60.9438 157.813 61.0758 158.207 61.1426C158.582 61.2644 158.955 61.3877 159.286 61.5559C159.627 61.7067 159.935 61.8906 160.212 62.0815C160.502 62.252 160.739 62.4696 160.965 62.6503C161.847 63.414 162.216 64.1093 162.216 64.1093Z" fill="#001433"/>
<path d="M165.648 58.1406C165.799 58.729 165.887 59.3301 165.974 59.9311C166.064 60.5329 166.105 61.1394 166.141 61.7483C166.196 62.9653 166.153 64.1917 165.989 65.4118C165.81 66.628 165.521 67.845 165 68.9889C164.752 69.564 164.424 70.1093 164.04 70.6137C163.659 71.1212 163.192 71.5651 162.677 71.9375L162.6 71.4135C163.278 71.7112 163.958 72.0035 164.629 72.3209C165.299 72.6383 165.975 72.9408 166.637 73.2802C165.917 73.0924 165.212 72.8669 164.501 72.6564C163.79 72.4458 163.088 72.2101 162.384 71.9807C162.229 71.9304 162.145 71.7647 162.196 71.6099C162.211 71.5604 162.24 71.518 162.275 71.4858L162.307 71.4567C162.518 71.2626 162.728 71.0717 162.911 70.8517C163.097 70.6373 163.272 70.411 163.431 70.1737C163.758 69.7055 164.011 69.1861 164.238 68.655C164.686 67.5889 164.971 66.445 165.172 65.2846C165.372 64.1226 165.492 62.9378 165.557 61.746C165.63 60.5525 165.662 59.3521 165.648 58.1406Z" fill="#FF8255"/>
<path d="M158.721 77.1386C158.721 77.1386 168.715 84.164 177.026 76.8417L158.721 77.1386Z" fill="white"/>
<path d="M217.804 205.858C214.427 183.67 198.51 165.34 198.51 165.34L201.404 147.493H149.455L152.349 165.34C152.349 165.34 136.432 183.67 133.055 205.858C131.125 218.544 148.906 226.183 164.488 230.4L164.263 234.798C164.263 234.798 168.893 234.248 175.429 232.949C181.966 234.247 186.596 234.798 186.596 234.798L186.37 230.4C201.953 226.183 219.734 218.545 217.804 205.858Z" fill="#003154"/>
<path opacity="0.5" d="M217.804 205.858C214.427 183.67 198.51 165.34 198.51 165.34L201.404 147.493H149.455L152.349 165.34C152.349 165.34 136.432 183.67 133.055 205.858C131.125 218.544 148.906 226.183 164.488 230.4L164.263 234.798C164.263 234.798 168.893 234.248 175.429 232.949C181.966 234.247 186.596 234.798 186.596 234.798L186.37 230.4C201.953 226.183 219.734 218.545 217.804 205.858Z" fill="#001433"/>
<path d="M148.403 170.483C151.808 172.371 155.375 174.01 158.959 175.424C170.236 179.87 182.268 182.196 194.401 182.232C199.321 182.247 204.298 181.952 209.27 181.481C204.038 171.711 198.509 165.34 198.509 165.34L201.404 147.493H149.455L152.349 165.34C152.349 165.34 150.723 167.217 148.403 170.483Z" fill="#001433"/>
<path d="M201.08 238.176C201.08 238.176 213.502 244.157 236.968 245.077C260.432 245.997 245.249 268.542 236.048 268.082C226.846 267.622 195.668 261.41 189.226 253.129C182.785 244.847 201.08 238.176 201.08 238.176Z" fill="#FFA94D"/>
<path d="M197.069 258.482C211.811 258.354 229.617 257.792 237.962 245.131C237.638 245.109 237.308 245.09 236.967 245.076C213.502 244.156 201.079 238.175 201.079 238.175C201.079 238.175 182.784 244.846 189.225 253.128C190.712 255.039 193.524 256.837 197.069 258.482Z" fill="#C96E31"/>
<path d="M201.027 238.195C201.06 238.183 201.079 238.175 201.079 238.175C201.079 238.175 201.152 238.209 201.282 238.268C201.198 238.244 201.111 238.22 201.027 238.195Z" fill="white"/>
<path d="M237.184 245.089C260.331 246.141 245.219 268.54 236.047 268.081C234.357 267.996 231.887 267.74 228.948 267.328C236.239 265.194 245.048 251.132 237.184 245.089Z" fill="white"/>
<path d="M227.803 248.755C227.803 248.755 224.52 250.99 224.54 260.63" stroke="white" stroke-width="1.32057" stroke-miterlimit="10" stroke-linecap="round" stroke-linejoin="round"/>
<path d="M222.964 247.882C222.964 247.882 219.682 250.116 219.701 259.756" stroke="white" stroke-width="1.32057" stroke-miterlimit="10" stroke-linecap="round" stroke-linejoin="round"/>
<path d="M218.746 246.623C218.746 246.623 215.464 248.858 215.484 258.498" stroke="white" stroke-width="1.32057" stroke-miterlimit="10" stroke-linecap="round" stroke-linejoin="round"/>
<path d="M213.343 241.069C213.343 241.069 182.955 229.011 162.696 213.575C142.438 198.14 111.085 179.328 94.2024 200.552C77.3202 221.775 143.884 258.434 202.731 261.328C202.731 261.328 213.825 254.575 213.343 241.069Z" fill="#003154"/>
<path opacity="0.5" d="M213.343 241.069C213.343 241.069 194.308 233.514 176.325 222.712C166.834 229.859 155.248 233.642 143.611 235.931C136.671 237.297 129.658 238.314 122.642 239.207C144.371 250.739 174.44 259.936 202.731 261.327C202.731 261.327 213.825 254.575 213.343 241.069Z" fill="#001433"/>
<path d="M156.895 238.176C156.895 238.176 144.473 244.157 121.008 245.077C97.5433 245.997 112.726 268.542 121.928 268.082C131.129 267.622 162.307 261.41 168.749 253.129C175.191 244.847 156.895 238.176 156.895 238.176Z" fill="#FFA94D"/>
<path d="M156.947 238.195C156.914 238.183 156.895 238.175 156.895 238.175C156.895 238.175 156.822 238.209 156.692 238.268C156.776 238.244 156.863 238.22 156.947 238.195Z" fill="white"/>
<path d="M120.791 245.089C97.6428 246.141 112.755 268.54 121.927 268.081C123.617 267.996 126.087 267.74 129.025 267.328C121.735 265.194 112.926 251.132 120.791 245.089Z" fill="white"/>
<path d="M141.539 242.722C142.973 249.372 146.249 255.096 151.99 259.326C152.802 259.924 153.631 260.495 154.469 261.055C160.969 258.791 166.443 256.092 168.749 253.128C175.19 244.846 156.895 238.175 156.895 238.175C156.895 238.175 156.822 238.209 156.692 238.268C155.657 238.735 150.518 240.927 141.539 242.722Z" fill="#C96E31"/>
<path d="M130.172 248.755C130.172 248.755 133.454 250.99 133.435 260.63" stroke="white" stroke-width="1.32057" stroke-miterlimit="10" stroke-linecap="round" stroke-linejoin="round"/>
<path d="M135.011 247.882C135.011 247.882 138.293 250.116 138.274 259.756" stroke="white" stroke-width="1.32057" stroke-miterlimit="10" stroke-linecap="round" stroke-linejoin="round"/>
<path d="M139.228 246.623C139.228 246.623 142.511 248.858 142.49 258.498" stroke="white" stroke-width="1.32057" stroke-miterlimit="10" stroke-linecap="round" stroke-linejoin="round"/>
<path d="M144.631 241.069C144.631 241.069 175.019 229.011 195.278 213.575C215.537 198.14 246.89 179.328 263.772 200.552C280.654 221.775 214.09 258.434 155.243 261.328C155.243 261.328 144.149 254.575 144.631 241.069Z" fill="#003154"/>
<path d="M126.061 99.7415C126.061 99.7415 114.054 92.3972 97.5004 96.7089C97.5004 96.7089 91.465 69.3349 88.5125 53.3523C88.5133 53.1677 88.5196 53.0176 88.5337 52.9092C88.5337 52.9092 96.2167 48.4875 95.6148 41.8078C95.3021 38.3376 92.4486 37.6596 90.1969 38.2166C90.1184 35.8934 89.3846 33.4524 88.016 33.6621C86.6481 33.8719 86.2081 35.169 86.1186 36.4787C85.7917 35.052 85.0524 33.6936 83.4034 33.9466C82.2689 34.121 81.7888 34.9907 81.6482 36.0592C81.165 34.8673 80.4383 33.8963 79.3611 34.099C78.3814 34.2828 77.8668 35.7339 77.6036 37.4545C76.8808 36.7655 75.975 36.1582 75.1642 36.4984C73.8969 37.0311 73.156 42.9054 73.2464 51.2373C71.8133 66.912 73.7523 109.505 80.4791 114.213C91.3809 121.842 143.666 121.689 147.043 126.512C150.42 131.335 152.349 99.2591 152.349 99.2591C152.349 99.2591 139.085 91.5416 126.061 99.7415Z" fill="#FFB199"/>
<path opacity="0.5" d="M133.968 123.261C140.969 124.134 146.064 125.113 147.043 126.512C149.285 129.716 150.889 116.643 151.713 107.501C143.707 108.219 137.339 115.765 133.968 123.261Z" fill="#FF8255"/>
<path d="M94.7454 39.6022C94.5671 39.2762 94.2748 39.0397 93.9723 38.8543C93.6667 38.6681 93.3257 38.5471 92.9753 38.4842C92.8009 38.4473 92.6257 38.4214 92.4466 38.4167C92.2698 38.3986 92.0915 38.397 91.9123 38.4096C91.5572 38.4127 91.1997 38.4622 90.847 38.5117C90.1407 38.6406 89.4438 38.8268 88.7665 39.0845C88.0877 39.3194 87.4215 39.6219 86.8103 39.9581C86.1998 40.2999 85.6239 40.7312 85.257 41.238C85.081 41.4894 84.9781 41.7636 85.0119 41.9725C85.0347 42.18 85.1934 42.3662 85.4456 42.5131C85.961 42.7983 86.6791 42.8871 87.3681 42.8839C88.0681 42.8839 88.7775 42.7849 89.4846 42.6584L89.6355 43.4488C89.2568 43.5132 88.8522 43.6224 88.4672 43.7379C88.2763 43.8047 88.0783 43.8565 87.8921 43.9343C87.7059 44.0129 87.5095 44.071 87.3288 44.159C86.9548 44.3146 86.6005 44.5047 86.2556 44.7106L85.7622 45.0515L85.3199 45.4483C85.1769 45.585 85.0685 45.75 84.9396 45.8993C84.7974 46.043 84.7432 46.2363 84.6379 46.4037C84.5287 46.5718 84.48 46.7619 84.4219 46.9513C84.3559 47.1398 84.2985 47.3315 84.2993 47.5342C84.2914 47.7338 84.2474 47.9373 84.2679 48.14L84.3464 48.7512C84.3559 48.961 84.4454 49.1511 84.4965 49.353L84.6764 49.9572L84.4077 49.3852C84.3221 49.1912 84.2097 49.005 84.176 48.792L84.0235 48.1651C83.978 47.9538 83.9984 47.7338 83.9835 47.5154C83.9599 47.2938 83.9968 47.0777 84.0455 46.8601C84.0864 46.6417 84.1186 46.4178 84.2294 46.2214C84.3315 46.025 84.3889 45.7971 84.5326 45.6258C84.6638 45.4475 84.7793 45.2511 84.9278 45.0869L85.3914 44.61L85.9075 44.1975C86.2666 43.9469 86.639 43.7143 87.0295 43.5195C87.416 43.3176 87.8222 43.1612 88.2307 43.0143C88.6456 42.8745 89.0478 42.7488 89.4949 42.6553C89.7125 42.6105 89.9254 42.7496 89.9702 42.9672C90.015 43.1817 89.879 43.3922 89.6661 43.4409L89.6457 43.4457C88.9088 43.613 88.1514 43.712 87.3767 43.7261C86.9902 43.7363 86.5966 43.712 86.2006 43.6491C85.8046 43.5855 85.4 43.4763 85.0127 43.2477C84.6348 43.0316 84.2372 42.6207 84.1783 42.0786C84.1162 41.5467 84.3425 41.0989 84.5837 40.7563C84.8335 40.4075 85.1423 40.142 85.4581 39.9039C85.7748 39.6651 86.1087 39.4679 86.4496 39.2903C87.1379 38.932 87.8418 38.672 88.5717 38.4756C89.2898 38.2572 90.0338 38.1103 90.7857 38.0262C91.1644 38.0042 91.5431 37.9625 91.9241 38.0065C92.1142 38.0144 92.3036 38.0372 92.4914 38.0772C92.6799 38.104 92.8653 38.1519 93.0476 38.2124C93.7688 38.4237 94.4689 38.903 94.7454 39.6022Z" fill="#FF8255"/>
<path d="M86.2569 43.4417C86.187 43.6484 86.1352 43.8448 86.0181 44.0852C85.9121 44.3162 85.7942 44.5244 85.6229 44.7208C85.4682 44.9219 85.2513 45.0932 85.007 45.2236C84.7548 45.3375 84.4609 45.4129 84.1781 45.3682C83.5975 45.3077 83.167 44.94 82.8661 44.5644C82.7105 44.3727 82.5903 44.1653 82.4787 43.9556L82.3326 43.6334C82.2705 43.4716 82.2627 43.4095 82.225 43.2932C82.115 42.8698 81.95 42.4817 81.8848 42.0291L81.7811 41.355C81.7536 41.1319 81.7001 40.9025 81.6946 40.6841L81.62 39.3657L81.6098 38.056C81.6082 37.8698 81.7583 37.7182 81.9437 37.7166C82.126 37.7151 82.2752 37.8589 82.2831 38.0396V38.045V38.0458C82.4127 39.4137 82.5486 40.8294 82.5549 42.242C82.5581 42.9507 82.5534 43.6641 82.4559 44.3869C82.408 44.7483 82.3459 45.1128 82.236 45.4837C82.115 45.8474 81.9924 46.2512 81.5752 46.6017C81.5296 46.6456 81.4582 46.6779 81.3984 46.7132C81.3474 46.736 81.3788 46.7344 81.2602 46.7745L81.1973 46.7926C81.1596 46.8146 80.916 46.8531 80.766 46.8311C80.4619 46.7949 80.249 46.6409 80.0746 46.4995C79.7399 46.2002 79.5427 45.8671 79.3644 45.5379C79.0203 44.8756 78.7822 44.2007 78.5693 43.5219C78.149 42.1658 77.8512 40.7831 77.5754 39.4184L77.5739 39.4113C77.5377 39.2338 77.6532 39.0601 77.8308 39.0248C77.9989 38.991 78.1631 39.0931 78.211 39.2542C78.5159 40.2905 78.8812 41.3558 79.131 42.4432C79.2575 42.9884 79.3746 43.5376 79.4312 44.104C79.4807 44.6674 79.5129 45.255 79.3007 45.8419C79.157 46.131 78.9912 46.3966 78.6518 46.5396C78.3037 46.6724 77.9533 46.5254 77.7216 46.3526C77.2415 45.9928 76.9304 45.5182 76.6287 45.0508C76.0418 44.1009 75.5877 43.0898 75.1587 42.0723C75.6498 43.0607 76.1668 44.042 76.8 44.9361C77.1182 45.3737 77.4654 45.8183 77.8944 46.0965C78.1081 46.2324 78.3391 46.3 78.5214 46.2159C78.7044 46.1405 78.8561 45.9087 78.9409 45.7036C79.0886 45.237 79.0493 44.6878 78.9747 44.1622C78.8977 43.6311 78.761 43.1031 78.6141 42.5791C78.3163 41.5263 77.929 40.5112 77.5817 39.4388L78.2173 39.2738C78.5355 40.6369 78.8678 41.9796 79.3141 43.2791C79.5372 43.9249 79.7886 44.5644 80.1068 45.1333C80.2655 45.4122 80.4517 45.6777 80.6395 45.8435C80.8438 46.0108 80.9223 45.9888 81.041 45.9126C81.1722 45.8144 81.3112 45.5284 81.3922 45.2338C81.4786 44.9345 81.5344 44.6084 81.5752 44.2777C81.6506 43.6146 81.6868 42.9287 81.6962 42.242C81.708 41.5546 81.6836 40.8632 81.6695 40.1695C81.6561 39.4726 81.6137 38.7875 81.6114 38.0694V38.0686L82.2847 38.0584L82.3027 39.3469L82.3829 40.6212C82.3892 40.8365 82.4402 41.0313 82.4661 41.2372L82.5596 41.8476C82.6146 42.2538 82.7914 42.6741 82.9014 43.0866C82.9297 43.1754 82.9705 43.3262 82.9894 43.3647L83.1135 43.6342C83.207 43.8047 83.3052 43.9728 83.4247 44.1166C83.6564 44.4057 83.9581 44.6296 84.2559 44.6485C84.5505 44.6886 84.8388 44.5291 85.062 44.2517C85.1759 44.1237 85.2749 43.9477 85.3456 43.7866C85.4242 43.6389 85.4878 43.4166 85.5538 43.2123C85.6151 43.0175 85.8233 42.9091 86.0189 42.9703C86.2137 43.0316 86.3222 43.2398 86.2609 43.4354C86.2585 43.4354 86.2569 43.4417 86.2569 43.4417Z" fill="#FF8255"/>
<path d="M266.22 51.2363C266.311 42.9044 265.57 37.03 264.303 36.4973C263.492 36.1563 262.585 36.7637 261.863 37.4535C261.6 35.7329 261.085 34.2818 260.106 34.0979C259.029 33.896 258.301 34.8663 257.819 36.0581C257.677 34.9897 257.197 34.1199 256.063 33.9455C254.414 33.6925 253.675 35.0509 253.348 36.4777C253.259 35.168 252.819 33.8709 251.452 33.6611C250.083 33.4513 249.349 35.8924 249.271 38.2156C247.018 37.6585 244.165 38.3366 243.853 41.8068C243.251 48.4865 250.934 52.9082 250.934 52.9082C250.947 53.0166 250.954 53.1666 250.955 53.3513C248.003 69.3347 241.967 96.7078 241.967 96.7078C225.413 92.3969 213.407 99.7404 213.407 99.7404C200.384 91.5405 187.119 99.2581 187.119 99.2581C187.119 99.2581 189.048 131.334 192.424 126.511C195.8 121.688 248.087 121.84 258.988 114.211C265.714 109.505 267.653 66.9109 266.22 51.2363Z" fill="#FFB199"/>
<path opacity="0.5" d="M205.329 115.427C200.564 111.296 194.297 106.426 187.65 106.336C188.439 115.479 190.084 129.854 192.423 126.512C193.706 124.68 202.049 123.565 212.497 122.469C210.237 119.986 207.855 117.616 205.329 115.427Z" fill="#FF8255"/>
<path d="M244.721 39.6022C244.998 38.9038 245.698 38.4245 246.42 38.2124C246.602 38.1519 246.787 38.104 246.976 38.0772C247.164 38.0364 247.353 38.0144 247.544 38.0065C247.925 37.9625 248.303 38.0042 248.682 38.0262C249.433 38.111 250.178 38.2572 250.896 38.4756C251.625 38.672 252.329 38.9328 253.018 39.2903C253.359 39.4679 253.694 39.6651 254.009 39.9039C254.325 40.1412 254.633 40.4075 254.883 40.7563C255.124 41.0989 255.351 41.5467 255.289 42.0786C255.23 42.6215 254.832 43.0316 254.454 43.2477C254.067 43.4771 253.662 43.5855 253.266 43.6491C252.87 43.7112 252.477 43.7363 252.09 43.7261C251.315 43.7112 250.558 43.6122 249.821 43.4457L249.801 43.4409C249.584 43.3914 249.449 43.1762 249.497 42.9601C249.546 42.7464 249.758 42.6113 249.971 42.6553C250.418 42.748 250.821 42.8745 251.235 43.0143C251.644 43.1605 252.049 43.3176 252.437 43.5195C252.826 43.7143 253.199 43.9469 253.559 44.1975L254.075 44.61L254.538 45.0869C254.687 45.2511 254.802 45.4475 254.933 45.6258C255.077 45.7971 255.135 46.025 255.237 46.2214C255.347 46.4178 255.379 46.6417 255.42 46.8601C255.469 47.0777 255.505 47.2938 255.482 47.5154C255.467 47.7338 255.487 47.9545 255.442 48.1651L255.289 48.792C255.256 49.005 255.143 49.1912 255.058 49.3852L254.789 49.9572L254.969 49.353C255.021 49.1511 255.109 48.9602 255.119 48.7512L255.197 48.14C255.219 47.9373 255.174 47.7338 255.166 47.5342C255.168 47.3315 255.11 47.139 255.043 46.9513C254.985 46.7611 254.937 46.571 254.827 46.4037C254.722 46.2363 254.668 46.043 254.526 45.8993C254.396 45.7492 254.288 45.585 254.145 45.4483L253.703 45.0515L253.21 44.7106C252.865 44.5047 252.51 44.3146 252.136 44.159C251.956 44.0718 251.759 44.0129 251.573 43.9343C251.387 43.8558 251.189 43.8039 250.998 43.7379C250.613 43.6224 250.208 43.5132 249.831 43.4488L249.981 42.6584C250.688 42.7849 251.398 42.8839 252.097 42.8839C252.787 42.8878 253.505 42.7983 254.02 42.5131C254.272 42.3662 254.43 42.18 254.453 41.9725C254.487 41.7636 254.384 41.4894 254.208 41.238C253.841 40.7312 253.265 40.2999 252.655 39.9581C252.044 39.6211 251.378 39.3194 250.699 39.0845C250.021 38.8268 249.325 38.6406 248.618 38.5117C248.266 38.463 247.908 38.4135 247.553 38.4096C247.374 38.397 247.196 38.3978 247.019 38.4167C246.84 38.4214 246.664 38.4465 246.491 38.4842C246.14 38.5471 245.799 38.6688 245.494 38.8543C245.192 39.0397 244.9 39.2762 244.721 39.6022Z" fill="#FF8255"/>
<path d="M253.914 43.2123C253.98 43.4166 254.043 43.6389 254.122 43.7866C254.194 43.9477 254.292 44.1237 254.406 44.2517C254.63 44.5291 254.919 44.6886 255.212 44.6485C255.51 44.6296 255.813 44.4057 256.044 44.1166C256.163 43.9728 256.261 43.8047 256.355 43.6342L256.479 43.3647C256.498 43.3262 256.539 43.1754 256.567 43.0866C256.677 42.6741 256.854 42.2538 256.909 41.8476L257.002 41.2372C257.028 41.0313 257.079 40.8365 257.086 40.6212L257.166 39.3469L257.184 38.0584L257.857 38.0686V38.0694C257.855 38.7875 257.812 39.4726 257.799 40.1695C257.785 40.8632 257.76 41.5546 257.772 42.242C257.781 42.9287 257.817 43.6146 257.893 44.2777C257.934 44.6084 257.989 44.9345 258.076 45.2338C258.157 45.5284 258.295 45.8144 258.427 45.9126C258.547 45.9888 258.625 46.0108 258.829 45.8435C259.017 45.6777 259.204 45.4122 259.362 45.1332C259.68 44.5652 259.931 43.9257 260.154 43.2791C260.601 41.9788 260.933 40.6369 261.251 39.2738L261.887 39.4388C261.539 40.512 261.152 41.5263 260.854 42.5791C260.707 43.1031 260.571 43.6311 260.494 44.1622C260.419 44.6878 260.381 45.237 260.527 45.7036C260.612 45.9087 260.764 46.1405 260.947 46.2159C261.129 46.3 261.36 46.2324 261.574 46.0965C262.003 45.8183 262.35 45.3737 262.668 44.9361C263.301 44.042 263.819 43.0607 264.31 42.0723C263.881 43.0898 263.427 44.1009 262.84 45.0508C262.538 45.5182 262.227 45.9928 261.747 46.3526C261.516 46.5254 261.165 46.6724 260.817 46.5396C260.476 46.3974 260.311 46.131 260.168 45.8419C259.956 45.255 259.988 44.6674 260.037 44.104C260.094 43.5376 260.211 42.9884 260.337 42.4432C260.587 41.355 260.952 40.2904 261.257 39.2542C261.308 39.0805 261.491 38.9808 261.665 39.0318C261.829 39.0805 261.928 39.2455 261.895 39.4105L261.893 39.4192C261.617 40.7838 261.319 42.1666 260.899 43.5226C260.686 44.2015 260.448 44.8763 260.104 45.5386C259.926 45.8678 259.728 46.201 259.394 46.5003C259.219 46.6417 259.006 46.7965 258.702 46.8318C258.552 46.8538 258.31 46.8153 258.272 46.7933L258.209 46.7753C258.09 46.7352 258.122 46.736 258.071 46.714C258.011 46.6786 257.94 46.6464 257.894 46.6024C257.477 46.252 257.354 45.8482 257.233 45.4844C257.123 45.1136 257.06 44.7491 257.013 44.3877C256.916 43.6649 256.91 42.9515 256.914 42.2428C256.921 40.8294 257.057 39.4144 257.186 38.0466V38.0403C257.193 37.8541 257.35 37.7096 257.536 37.7166C257.718 37.7237 257.86 37.8746 257.859 38.056L257.849 39.3657L257.775 40.6841C257.769 40.9025 257.716 41.1311 257.688 41.355L257.584 42.0291C257.519 42.4816 257.354 42.8698 257.244 43.2932C257.206 43.4103 257.199 43.4716 257.137 43.6334L256.991 43.9555C256.88 44.1653 256.759 44.3727 256.604 44.5644C256.302 44.94 255.872 45.3077 255.291 45.3682C255.008 45.4122 254.714 45.3375 254.462 45.2236C254.218 45.0932 254.001 44.9219 253.846 44.7208C253.675 44.5236 253.557 44.3162 253.451 44.0852C253.334 43.8448 253.282 43.6491 253.212 43.4417C253.147 43.2477 253.251 43.0379 253.445 42.9727C253.639 42.9075 253.849 43.012 253.914 43.2052C253.912 43.206 253.914 43.2107 253.914 43.2123Z" fill="#FF8255"/>
<path d="M140.289 161C140.289 161 178.395 171.129 212.642 157.623C212.642 157.623 204.924 114.454 190.454 97.0896L182.977 98.294C182.977 98.294 186.113 109.871 174.054 111.077C155.981 112.884 155.966 98.0536 156.689 97.8124L149.454 97.33C149.454 97.33 136.431 127.235 140.289 161Z" fill="white"/>
<path d="M169.91 150.07C161.623 148.483 152.325 146.167 145.758 140.511C143.582 138.638 141.875 136.445 140.366 134.111C139.455 142.391 139.208 151.541 140.289 160.999C140.289 160.999 178.395 171.128 212.641 157.622C212.641 157.622 212.293 155.675 211.609 152.456C197.693 153.536 183.483 152.671 169.91 150.07Z" fill="#FAEEE8"/>
<path d="M172.872 148.941C172.872 148.941 145.908 137.824 153.511 122.537C159.376 110.744 172.895 120.246 172.636 126.157C172.636 126.157 174.751 113.757 184.712 116.185C194.674 118.613 198.045 134.614 172.872 148.941Z" fill="#FAEEE8"/>
<path d="M173.837 145.565C173.837 145.565 146.873 134.448 154.476 119.161C160.341 107.368 173.86 116.87 173.601 122.781C173.601 122.781 175.716 110.381 185.677 112.809C195.639 115.238 199.01 131.237 173.837 145.565Z" fill="#FF8255"/>
</svg>
