<svg width="30" height="37" viewBox="0 0 30 37" fill="none" xmlns="http://www.w3.org/2000/svg">
<rect x="17.7942" y="28.7803" width="15.1838" height="17.8951" transform="rotate(-151.765 17.7942 28.7803)" fill="#2C2E3E"/>
<path fill-rule="evenodd" clip-rule="evenodd" d="M11.2307 25.0762L11.3332 24.8797L4.41734 21.5968L2.39059 25.3711C1.5168 27.4623 2.01999 31.0176 6.87444 33.0889C11.3967 35.9845 14.5085 34.4356 15.7676 32.5544L17.7943 28.7802L11.2307 25.0762Z" fill="#2C2E3E"/>
<path fill-rule="evenodd" clip-rule="evenodd" d="M19.5192 9.39457L19.524 9.39716L26.2603 13.0145C28.7762 8.60429 27.3788 6.10584 26.0889 5.41316L22.6539 3.56859L22.6491 3.566L19.2141 1.72144C17.9242 1.02875 15.1699 1.2978 12.8833 5.83113L19.5192 9.39457Z" fill="#2C2E3E"/>
<path d="M13.9777 9.06555L8.89804 18.525C8.52861 19.213 7.7969 19.1237 7.47722 18.9931L13.4805 7.81371C14.0276 8.35372 14.0399 8.87328 13.9777 9.06555Z" fill="#F2F2F2"/>
<path d="M23.0076 13.9144L17.9279 23.3738C17.5585 24.0618 18.0371 24.6225 18.3226 24.8168L24.3258 13.6374C23.5735 13.4796 23.1335 13.7563 23.0076 13.9144Z" fill="#F2F2F2"/>
<path fill-rule="evenodd" clip-rule="evenodd" d="M10.5016 26.0843C11.8238 26.8574 14.1551 27.9179 15.6355 27.7138C16.5564 27.5868 16.8025 26.5084 16.836 25.5795L16.8901 24.0746C16.9055 23.6453 17.0466 23.1157 16.7047 22.8555C16.5943 22.7714 16.4344 22.7059 16.2073 22.6803C15.7017 22.6498 14.3446 22.3977 12.8899 21.6368C11.4522 20.8445 10.4924 19.8524 10.1876 19.4478C10.0408 19.2727 9.89798 19.1755 9.76687 19.1299C9.36114 18.9886 8.99757 19.3988 8.6482 19.6488L7.42364 20.5251C6.66771 21.0661 5.90475 21.867 6.30754 22.7047C6.95507 24.0515 9.12683 25.4092 10.5016 26.0843Z" fill="#F2F2F2"/>
<path fill-rule="evenodd" clip-rule="evenodd" d="M20.308 6.86405C20.6548 7.04583 21.001 7.23171 21.3441 7.42042C22.5045 8.05865 23.4919 9.11473 24.1557 9.99765C24.591 10.5767 24.4216 11.3753 23.843 11.8112C23.0696 12.3938 21.7792 12.1485 21.0506 11.5108C20.5102 11.0378 19.9031 10.5881 19.4449 10.2742C19.2984 10.1738 19.1427 10.0902 18.9781 10.0235C18.4633 9.81493 17.7531 9.55725 17.0603 9.36803C16.1262 9.1129 15.209 8.17272 15.2675 7.20617C15.3112 6.48309 15.8834 5.90079 16.6065 5.94383C17.7092 6.00946 19.135 6.24926 20.308 6.86405Z" fill="#F2F2F2"/>
<path d="M14.1451 33.2836C13.1002 32.7841 10.7062 32.2371 9.48891 34.0455C10.4014 34.3713 12.61 34.6751 14.1451 33.2836Z" fill="#E0E0E0"/>
<path d="M4.85077 31.3346C4.97548 30.1832 4.69745 27.7433 2.58769 27.1947C2.58292 28.1635 3.02887 30.3479 4.85077 31.3346Z" fill="#E0E0E0"/>
<path d="M18.6129 2.38316C18.371 2.90987 17.4605 3.79555 15.7526 3.12465C16.1195 2.74716 17.2051 2.07038 18.6129 2.38316Z" fill="#FF2626"/>
<path d="M18.6129 2.38316C18.371 2.90987 17.4605 3.79555 15.7526 3.12465C16.1195 2.74716 17.2051 2.07038 18.6129 2.38316Z" fill="url(#paint0_linear_161_1987)"/>
<path d="M26.9807 9.02194C26.4229 8.8646 25.4069 8.10213 25.8053 6.31099C26.235 6.61497 27.0717 7.58273 26.9807 9.02194Z" fill="#FF2626"/>
<path d="M26.9807 9.02194C26.4229 8.8646 25.4069 8.10213 25.8053 6.31099C26.235 6.61497 27.0717 7.58273 26.9807 9.02194Z" fill="url(#paint1_linear_161_1987)"/>
<defs>
<linearGradient id="paint0_linear_161_1987" x1="16.7091" y1="3.63828" x2="17.6583" y2="1.8706" gradientUnits="userSpaceOnUse">
<stop stop-color="#FFA3A3"/>
<stop offset="1" stop-color="#FC3030" stop-opacity="0"/>
</linearGradient>
<linearGradient id="paint1_linear_161_1987" x1="25.4459" y1="7.33548" x2="27.3393" y2="7.99958" gradientUnits="userSpaceOnUse">
<stop stop-color="#FFA3A3"/>
<stop offset="1" stop-color="#FC3030" stop-opacity="0"/>
</linearGradient>
</defs>
</svg>
