<svg width="40" height="20" viewBox="0 0 40 20" fill="none" xmlns="http://www.w3.org/2000/svg">
<path d="M7.12235 12.9875L1.28736 18.5935C1.09223 18.781 0.767597 18.6427 0.767597 18.3721V1.3305C0.767597 1.16093 0.905063 1.02346 1.07464 1.02346H14.0194C14.189 1.02346 14.3264 1.16093 14.3264 1.3305V18.4031C14.3264 18.669 14.0115 18.8092 13.8139 18.6312L7.54056 12.9808C7.42095 12.873 7.23843 12.876 7.12235 12.9875Z" stroke="#B9B9B9" stroke-width="1.5"/>
<g clip-path="url(#clip0_161_4153)">
<path d="M29.6231 4.21109L30.277 5.275L30.931 4.21112C31.7221 2.92406 33.1344 2.06791 34.7487 2.06791C37.225 2.06791 39.2324 4.07528 39.2324 6.55154C39.2324 7.89813 38.6367 9.10337 37.6928 9.92675L37.6731 9.94394L37.6546 9.96244L30.277 17.3403L22.8995 9.96244L22.881 9.94395L22.8613 9.92676C21.9174 9.1034 21.3218 7.89816 21.3218 6.55154C21.3218 4.07515 23.3287 2.06791 25.8049 2.06791C27.4192 2.06791 28.8321 2.92416 29.6231 4.21109Z" stroke="#B9B9B9" stroke-width="1.5"/>
</g>
<defs>
<clipPath id="clip0_161_4153">
<rect width="19" height="19" fill="white" transform="translate(20.5542) scale(1.02346)"/>
</clipPath>
</defs>
</svg>
