<svg width="35" height="34" viewBox="0 0 35 34" fill="none" xmlns="http://www.w3.org/2000/svg">
<rect x="6.6812" y="17.2478" width="15.0272" height="17.7107" transform="rotate(-46.3364 6.6812 17.2478)" fill="#2C2E3E"/>
<path fill-rule="evenodd" clip-rule="evenodd" d="M11.9433 11.961L12.1037 12.1106L17.0566 6.377L13.9894 3.4497C12.2244 2.0655 8.70005 1.60949 5.44585 5.69542C1.49273 9.24739 2.15108 12.624 3.61429 14.3205L6.68143 17.2478L11.9433 11.961Z" fill="#2C2E3E"/>
<path fill-rule="evenodd" clip-rule="evenodd" d="M24.7217 23.9975L24.718 24.0014L19.4934 29.4756C23.0384 33.037 25.79 32.3617 26.7904 31.3134L29.4546 28.522L29.4583 28.5181L32.1225 25.7267C33.1229 24.6784 33.5914 21.9799 29.8685 18.6049L24.7217 23.9975Z" fill="#2C2E3E"/>
<path d="M26.4944 18.7974L18.8073 11.4607C18.2482 10.9271 18.526 10.2525 18.7348 9.98192L27.8197 18.6526C27.1604 19.0324 26.6615 18.9074 26.4944 18.7974Z" fill="#F2F2F2"/>
<path d="M19.4912 26.1352L11.804 18.7985C11.2449 18.2649 10.584 18.5739 10.3234 18.7951L19.4083 27.4658C19.757 26.7895 19.6088 26.297 19.4912 26.1352Z" fill="#F2F2F2"/>
<path fill-rule="evenodd" clip-rule="evenodd" d="M11.1732 11.0003C10.0875 12.0582 8.46201 14.0032 8.267 15.4692C8.14569 16.3812 9.10967 16.8999 9.98712 17.1764L11.4086 17.6243C11.8141 17.752 12.2822 18.0261 12.6205 17.7684C12.7298 17.6851 12.8343 17.5498 12.9185 17.3399C13.0808 16.8657 13.6786 15.6373 14.7874 14.4498C15.9219 13.2868 17.1211 12.6323 17.5873 12.4481C17.7931 12.3542 17.9233 12.2435 18.0014 12.1304C18.243 11.7805 17.9474 11.3257 17.8009 10.9265L17.2872 9.52753C16.9702 8.66392 16.407 7.72519 15.5017 7.88889C14.0463 8.15206 12.1793 9.86652 11.1732 11.0003Z" fill="#F2F2F2"/>
<path fill-rule="evenodd" clip-rule="evenodd" d="M26.9283 25.4164C26.6636 25.6994 26.3951 25.9807 26.1248 26.2583C25.2103 27.1973 23.9428 27.8613 22.9257 28.2621C22.2587 28.525 21.5414 28.1531 21.2779 27.4864C20.9257 26.5951 21.4994 25.4286 22.2997 24.9014C22.8932 24.5104 23.4821 24.0496 23.9022 23.6951C24.0366 23.5817 24.1573 23.4552 24.2643 23.3158C24.5988 22.8796 25.0316 22.2698 25.3945 21.6587C25.8839 20.8347 27.0223 20.2073 27.9291 20.5175C28.6074 20.7496 29.0122 21.4488 28.7808 22.1274C28.4279 23.1621 27.8237 24.4591 26.9283 25.4164Z" fill="#F2F2F2"/>
<path d="M3.34605 12.5807C4.09771 11.7153 5.24985 9.57537 3.8451 7.93791C3.29401 8.72262 2.42267 10.7498 3.34605 12.5807Z" fill="#E0E0E0"/>
<path d="M7.65204 4.22701C8.71767 4.64913 11.1186 5.02629 12.1975 3.15795C11.2744 2.89832 9.07305 2.74864 7.65204 4.22701Z" fill="#E0E0E0"/>
<path d="M31.6495 24.9785C31.2107 24.6091 30.6055 23.5072 31.6952 22.0545C31.9588 22.5039 32.3186 23.7178 31.6495 24.9785Z" fill="#FF2626"/>
<path d="M31.6495 24.9785C31.2107 24.6091 30.6055 23.5072 31.6952 22.0545C31.9588 22.5039 32.3186 23.7178 31.6495 24.9785Z" fill="url(#paint0_linear_161_1989)"/>
<path d="M23.1128 31.214C23.4098 30.7233 24.4047 29.9547 26.0086 30.8064C25.6054 31.1363 24.4619 31.6798 23.1128 31.214Z" fill="#FF2626"/>
<path d="M23.1128 31.214C23.4098 30.7233 24.4047 29.9547 26.0086 30.8064C25.6054 31.1363 24.4619 31.6798 23.1128 31.214Z" fill="url(#paint1_linear_161_1989)"/>
<defs>
<linearGradient id="paint0_linear_161_1989" x1="30.9534" y1="22.8318" x2="32.3899" y2="24.2028" gradientUnits="userSpaceOnUse">
<stop stop-color="#FFA3A3"/>
<stop offset="1" stop-color="#FC3030" stop-opacity="0"/>
</linearGradient>
<linearGradient id="paint1_linear_161_1989" x1="25.1258" y1="30.1938" x2="23.9937" y2="31.8253" gradientUnits="userSpaceOnUse">
<stop stop-color="#FFA3A3"/>
<stop offset="1" stop-color="#FC3030" stop-opacity="0"/>
</linearGradient>
</defs>
</svg>
