<svg width="23" height="16" viewBox="0 0 23 16" fill="none" xmlns="http://www.w3.org/2000/svg">
<g opacity="0.7">
<path d="M7.90631 0H15.0938V15.8045H7.90631V0Z" fill="#EC1C24"/>
<path d="M3.59374 0C1.21217 0 0 1.76903 0 3.95114V11.8534C0 14.0355 1.21217 15.8045 3.59374 15.8045H7.90623V0H3.59374Z" fill="#007A5E"/>
<path d="M19.4062 0H15.0938V15.8045H19.4062C21.7878 15.8045 23 14.0355 23 11.8534V3.95114C23 1.76903 21.7878 0 19.4062 0ZM14.541 6.71298L12.3122 6.71693L11.6222 4.46335L10.9344 6.71693L8.70409 6.71298L10.5117 8.08582L9.81024 10.3243L11.6251 8.93388L13.4399 10.3243L12.7363 8.08582L14.541 6.71298Z" fill="#F9CB38"/>
</g>
</svg>
